<?xml version="1.0" standalone="no"?>
<!DOCTYPE svg PUBLIC "-//W3C//DTD SVG 20010904//EN"
 "http://www.w3.org/TR/2001/REC-SVG-20010904/DTD/svg10.dtd">
<svg version="1.0" xmlns="http://www.w3.org/2000/svg"
 width="1200.000000pt" height="1200.000000pt" viewBox="0 0 1200.000000 1200.000000"
 preserveAspectRatio="xMidYMid meet">
<metadata>
Created by potrace 1.16, written by Peter Selinger 2001-2019
</metadata>
<g transform="translate(0.000000,1200.000000) scale(0.100000,-0.100000)"
fill="#000000" stroke="none">
<path d="M756 11936 c-9 -36 -21 -118 -28 -183 -10 -102 -9 -130 5 -209 24
-130 23 -175 -7 -203 -13 -12 -77 -42 -142 -67 -66 -24 -128 -48 -139 -53 -11
-5 -58 -26 -105 -46 -47 -20 -97 -43 -112 -51 -14 -8 -33 -14 -41 -14 -11 0
-99 109 -138 171 -5 9 -11 11 -18 4 -9 -9 26 -62 121 -182 13 -17 -81 -64
-112 -56 -16 4 -21 3 -16 -6 4 -6 0 -18 -9 -27 -21 -21 -2 -46 30 -38 16 4 26
-1 38 -19 9 -13 43 -56 76 -94 l60 -69 -72 -33 -72 -32 -18 22 c-21 26 -36 16
-18 -12 11 -18 10 -23 -8 -36 -12 -8 -21 -21 -21 -30 0 -12 8 -14 38 -9 38 6
39 5 109 -78 l71 -83 -65 -27 c-36 -15 -66 -26 -67 -24 -18 32 -60 77 -67 73
-5 -4 2 -21 16 -39 29 -39 30 -45 8 -61 -23 -17 -7 -38 25 -32 21 4 33 -4 66
-42 23 -25 70 -76 105 -114 35 -37 62 -69 60 -71 -2 -2 -30 -13 -61 -24 -53
-20 -58 -20 -74 -5 -12 13 -115 147 -130 172 -2 1 -8 1 -14 -1 -7 -2 20 -46
60 -101 40 -54 71 -99 69 -101 -2 -2 -26 -11 -54 -21 -55 -20 -75 -33 -75 -47
0 -20 33 -18 97 6 l68 26 112 -110 c62 -59 113 -111 113 -114 0 -3 -6 -6 -13
-6 -16 0 -309 -105 -347 -125 -17 -9 -30 -20 -30 -25 0 -23 45 -17 136 16 54
20 146 51 203 70 l103 34 45 -36 45 -37 -35 -18 c-100 -52 -145 -196 -92 -298
22 -44 76 -92 135 -120 48 -23 68 -26 160 -26 132 0 186 21 259 101 l50 54
123 -59 c68 -32 152 -71 188 -86 107 -43 247 -95 259 -95 15 0 14 -11 -5 -55
-8 -20 -14 -38 -12 -39 15 -10 460 -106 468 -101 6 3 10 12 10 18 1 36 15 38
111 17 211 -46 460 -81 804 -112 249 -23 1078 -11 1248 18 34 6 37 5 37 -18 0
-14 8 -32 18 -41 21 -20 92 -23 125 -6 32 17 77 61 77 76 0 7 3 13 8 13 14 0
437 59 527 74 547 89 1143 229 1755 413 102 31 262 77 357 103 155 42 170 45
157 26 -20 -28 -18 -80 4 -99 34 -31 78 -40 132 -27 69 16 105 53 125 126 9
32 19 65 23 73 5 8 44 22 88 33 43 10 89 20 102 23 19 5 22 1 22 -25 0 -38
-23 -93 -56 -137 -14 -18 -21 -33 -15 -33 11 0 51 50 71 89 6 13 15 44 19 70
l6 46 70 -1 c39 0 149 -12 245 -27 525 -78 1029 -126 1328 -127 l103 0 -3 -62
-3 -63 -65 -11 c-36 -7 -98 -17 -137 -24 -51 -8 -73 -16 -73 -26 0 -10 7 -13
23 -9 12 2 63 12 112 20 50 9 100 18 113 21 20 4 22 1 22 -35 0 -46 7 -43
-145 -67 -60 -9 -114 -21 -119 -25 -18 -16 2 -20 53 -11 28 5 51 5 51 1 0 -5
-4 -9 -9 -9 -18 0 -42 -67 -32 -93 11 -29 29 -37 82 -37 46 0 72 11 112 48 23
22 27 34 27 79 0 52 0 53 30 53 21 0 30 5 30 16 0 11 -8 15 -27 12 -26 -3 -28
0 -31 35 -3 35 -1 38 27 43 17 4 31 13 31 20 0 10 -7 13 -25 8 -25 -6 -25 -5
-25 55 l0 61 72 0 c67 0 135 4 498 31 341 25 799 92 1042 153 l127 32 -5 -23
c-9 -32 9 -29 22 5 9 23 24 32 95 55 l84 28 98 -21 c109 -23 366 -88 379 -96
4 -3 8 1 8 9 0 12 -34 25 -150 57 -59 16 -203 49 -247 56 -42 6 -60 24 -25 24
9 0 71 27 136 59 l120 59 80 -24 c44 -12 82 -21 84 -19 11 11 -14 24 -73 40
-67 19 -80 29 -45 38 24 6 28 47 5 47 -9 0 -33 -11 -55 -25 -43 -27 -39 -27
-200 14 -19 5 -70 15 -112 22 -43 6 -78 15 -78 18 0 3 27 17 61 30 54 21 69
22 150 16 57 -5 89 -4 89 3 0 14 -26 22 -72 22 -52 0 -46 6 45 45 l72 31 100
-28 c112 -31 115 -32 115 -19 0 9 -55 30 -140 51 l-45 12 30 15 c32 17 45 31
45 51 0 20 -30 14 -88 -19 -41 -23 -61 -29 -84 -24 l-30 7 20 21 c32 35 35 61
11 90 -11 15 -15 27 -9 27 12 0 83 30 136 57 27 14 35 14 86 -1 65 -19 68 -19
68 -7 0 16 -163 62 -405 114 l-60 13 68 22 c37 13 79 30 95 38 15 7 30 14 34
14 4 0 36 13 71 30 l65 30 64 -20 c75 -24 68 -23 68 -7 0 8 -22 19 -51 27 -42
12 -48 16 -35 26 19 13 21 44 4 44 -7 -1 -28 -9 -47 -19 -33 -17 -36 -17 -140
6 -186 42 -178 34 -73 72 52 18 143 57 203 87 85 42 109 58 109 74 0 29 -19
25 -107 -19 -92 -46 -218 -98 -326 -136 -69 -23 -84 -25 -125 -16 -26 5 -64
12 -84 16 -35 5 -37 8 -43 53 -14 104 -53 187 -148 315 -40 55 -69 106 -77
135 -7 26 -15 54 -18 62 -11 25 -13 -112 -5 -323 5 -110 6 -200 3 -202 -3 -1
-34 1 -70 5 -226 28 -521 43 -877 44 -211 0 -383 4 -383 8 0 6 161 481 166
486 3 5 444 -64 450 -71 4 -3 -13 -61 -36 -129 -43 -124 -59 -163 -60 -142 0
7 -19 19 -42 29 -35 13 -49 14 -89 5 -54 -13 -99 -52 -99 -84 0 -80 135 -112
210 -50 22 19 38 53 70 152 23 70 57 165 75 212 56 147 85 251 72 255 -7 2
-57 11 -112 19 -87 14 -276 46 -356 60 -25 5 -27 1 -44 -57 -9 -34 -61 -192
-115 -352 -54 -159 -101 -300 -105 -313 l-6 -22 -26 20 c-50 39 -158 24 -200
-28 -9 -10 -35 -17 -80 -19 -105 -6 -475 -42 -598 -58 -60 -9 -128 -18 -151
-21 l-41 -5 5 241 c3 132 3 240 0 240 -2 0 -94 -13 -203 -30 -109 -16 -200
-30 -201 -30 0 0 -3 -108 -6 -240 -3 -132 -7 -242 -9 -244 -12 -12 -423 -91
-469 -91 -30 1 -103 11 -162 24 l-108 24 0 169 c0 194 -7 184 90 118 48 -32
62 -48 71 -81 12 -39 7 -94 -15 -154 -8 -20 -8 -20 8 0 29 35 40 94 27 155 -6
30 -8 71 -5 91 11 65 -18 127 -96 204 -40 40 -72 81 -75 97 -4 15 -11 28 -16
28 -5 0 -9 -118 -9 -284 l0 -285 -30 9 c-30 9 -69 2 -108 -19 -16 -9 -75 2
-289 51 -147 34 -269 63 -271 64 -4 2 137 254 154 274 6 8 26 42 44 75 18 33
44 81 58 108 14 26 23 50 20 53 -7 6 -458 174 -469 174 -3 0 -21 -30 -39 -67
-18 -38 -50 -97 -70 -133 -21 -36 -75 -130 -120 -210 -45 -80 -84 -146 -85
-148 -2 -3 -80 15 -280 63 -77 19 -180 43 -230 55 -151 36 -338 81 -375 90
l-35 9 3 151 c1 82 3 218 5 300 2 133 0 150 -14 150 -15 0 -17 -29 -20 -289
-2 -159 -7 -292 -11 -296 -3 -4 -107 17 -230 45 -123 29 -272 63 -333 77 -60
13 -155 34 -210 47 -55 13 -145 34 -200 46 -55 12 -113 26 -130 30 -34 10
-345 66 -420 75 -27 3 -72 10 -100 15 -42 8 -280 32 -323 33 -16 0 -11 61 14
180 25 120 59 107 -295 107 l-309 0 -6 -27 c-3 -16 -13 -73 -21 -128 -9 -54
-18 -101 -21 -104 -2 -3 -92 -8 -198 -12 -400 -16 -891 -89 -1284 -192 -81
-21 -92 -23 -86 -8 69 164 90 322 63 478 -11 63 -11 63 -45 63 -19 0 -34 -2
-34 -3 0 -2 7 -19 16 -37 31 -61 -5 -207 -82 -327 -36 -58 -194 -223 -213
-223 -13 0 -25 141 -17 219 12 133 57 254 124 331 l34 40 -90 0 -90 0 -16 -64z
m2536 -131 c4 -5 -19 -145 -25 -151 -2 -2 -97 1 -213 6 -115 5 -241 10 -280
10 l-70 0 10 65 9 65 216 3 c119 1 246 3 282 5 36 1 68 0 71 -3z m-625 -207
c-3 -13 -15 -85 -28 -160 l-22 -136 -81 -7 c-510 -38 -552 -42 -901 -101 -184
-31 -278 -48 -410 -74 -27 -5 -119 -28 -204 -51 -169 -46 -171 -46 -171 21 0
30 9 45 60 95 33 33 84 93 112 132 29 40 59 73 68 73 8 0 42 9 75 19 264 83
870 180 1245 200 270 14 263 15 257 -11z m436 13 c81 -5 150 -11 153 -13 4 -5
-35 -269 -41 -276 -2 -2 -17 4 -34 12 -41 22 -97 20 -151 -6 -39 -18 -69 -21
-219 -26 -166 -4 -173 -4 -168 14 3 11 16 83 28 162 l23 142 131 -1 c71 0 197
-4 278 -8z m7034 -31 c242 -37 243 -37 243 -53 -1 -40 -10 -40 -241 -2 -123
21 -225 38 -226 39 -5 5 10 46 17 46 5 0 98 -14 207 -30z m-6654 0 c100 -11
207 -25 237 -30 30 -5 84 -14 120 -20 161 -26 253 -45 520 -106 312 -71 297
-67 653 -150 l247 -58 0 -28 c0 -15 -1 -28 -2 -28 -2 0 -78 -13 -169 -29
l-167 -29 -153 29 c-509 96 -954 151 -1361 166 -93 3 -168 8 -168 11 0 8 40
246 45 270 3 12 8 22 11 22 3 0 87 -9 187 -20z m3246 -161 c107 -38 197 -71
199 -74 7 -7 -9 -45 -20 -45 -10 0 -420 149 -426 155 -2 2 2 13 8 25 8 15 17
19 28 15 9 -4 105 -38 211 -76z m-87 -135 c117 -41 213 -76 214 -77 2 -1 -30
-59 -70 -129 l-72 -126 -20 23 c-41 46 -141 55 -192 16 -22 -16 -28 -16 -140
12 -64 16 -119 31 -121 32 -3 4 178 325 184 325 2 0 100 -34 217 -76z m-3700
-66 c3 -48 32 -75 89 -84 74 -12 181 44 195 103 6 23 9 24 73 19 36 -3 138 -8
226 -11 142 -6 335 -23 610 -55 143 -16 380 -55 490 -80 22 -5 75 -14 118 -21
44 -7 81 -18 84 -25 3 -8 24 -12 61 -12 73 1 367 -57 332 -65 -14 -3 -97 -18
-185 -32 -224 -36 -214 -33 -208 -55 4 -14 12 -18 27 -15 61 13 149 26 153 21
3 -2 -4 -9 -15 -15 -11 -6 -30 -26 -41 -45 -21 -33 -22 -33 -69 -24 -26 5 -83
15 -127 23 -44 8 -118 21 -165 30 -47 9 -110 20 -140 25 -102 17 -444 59 -535
65 -49 4 -126 10 -170 15 -182 21 -639 31 -894 20 -140 -5 -255 -9 -256 -7 -2
1 6 59 17 129 24 148 3 134 200 137 l127 1 3 -42z m-335 10 c-4 -13 -14 -71
-23 -130 -16 -107 -25 -123 -52 -96 -21 21 -113 15 -162 -10 -32 -16 -75 -26
-145 -32 -55 -5 -118 -12 -140 -15 -42 -5 -346 -50 -450 -65 -33 -5 -161 -30
-284 -55 l-224 -46 -51 21 c-28 12 -81 24 -118 27 -74 6 -69 0 -84 104 -5 43
-4 47 18 52 12 3 94 23 180 46 330 85 769 162 1103 192 66 6 154 14 195 18 41
5 113 9 159 9 82 2 83 2 78 -20z m5973 -135 l0 -158 -49 0 c-56 0 -97 -24
-121 -71 -8 -16 -16 -31 -17 -33 -3 -5 -141 -30 -170 -30 -23 -1 -23 0 -23
138 0 76 3 165 6 198 l7 60 156 25 c86 14 168 26 184 27 l27 1 0 -157z m2623
-26 c40 -66 60 -124 55 -163 -4 -32 -12 -24 -87 80 -68 94 -110 182 -111 229
0 26 2 25 53 -28 28 -31 69 -84 90 -118z m-10676 94 c-36 -34 -93 -97 -128
-142 l-64 -80 -59 61 c-56 58 -59 63 -41 73 32 19 350 155 354 152 1 -2 -26
-31 -62 -64z m4928 9 c180 -42 357 -84 505 -120 69 -17 148 -36 177 -42 l52
-11 -20 -39 -20 -39 -30 25 c-58 49 -155 47 -201 -4 -15 -16 -33 -30 -40 -30
-7 0 -108 20 -223 45 -195 41 -286 60 -343 71 -21 4 -23 9 -20 52 3 46 3 47
46 55 32 6 42 13 42 27 0 17 -5 19 -45 13 -42 -5 -45 -4 -45 16 0 17 4 21 18
17 9 -3 76 -19 147 -36z m-5195 -185 l64 -65 -27 -55 c-18 -38 -33 -55 -46
-55 -17 0 -61 46 -138 146 l-32 40 47 26 c26 15 52 27 57 27 6 1 40 -28 75
-64z m6015 -10 c17 -4 41 -11 55 -15 14 -5 50 -14 81 -20 42 -8 58 -16 62 -30
13 -48 119 -76 194 -49 25 8 71 1 274 -46 134 -30 253 -57 264 -60 17 -4 20
-11 17 -43 -5 -49 16 -67 78 -67 35 0 57 7 88 29 l42 29 75 -14 c41 -7 75 -16
75 -19 0 -3 -62 -21 -138 -39 l-139 -32 -344 76 c-189 42 -451 99 -581 128
-131 29 -238 55 -238 59 0 4 16 34 36 68 26 44 40 60 52 56 9 -3 31 -8 47 -11z
m-883 -15 c40 -10 418 -86 483 -97 17 -3 44 -15 60 -27 23 -16 46 -21 105 -23
49 0 153 -19 300 -51 500 -113 820 -182 836 -182 35 0 -2 -18 -79 -39 -87 -24
-101 -25 -92 -11 4 7 -103 10 -314 10 l-321 0 -202 39 c-112 22 -247 47 -301
57 -86 16 -101 22 -119 46 -42 60 -128 79 -233 53 -66 -17 -74 -17 -167 0 -54
10 -98 20 -98 21 0 2 9 18 20 36 15 24 20 51 20 100 0 70 -3 66 52 77 4 0 27
-4 50 -9z m-4567 -82 l7 -57 -52 -26 c-28 -14 -72 -45 -96 -67 l-44 -41 -38
27 c-20 14 -54 41 -75 58 l-38 33 33 34 c26 26 61 43 158 76 83 28 127 38 132
31 3 -6 9 -37 13 -68z m2558 76 l106 -7 6 -41 c3 -23 8 -53 11 -67 4 -22 1
-28 -20 -33 -19 -5 -26 -13 -26 -30 0 -44 9 -56 36 -46 22 9 24 7 24 -22 l0
-31 -222 7 c-195 6 -749 -6 -893 -19 -27 -3 -106 -9 -175 -15 -69 -6 -159 -17
-200 -25 -41 -7 -97 -17 -125 -20 -83 -11 -322 -56 -455 -85 -68 -16 -128 -26
-132 -24 -5 3 -8 13 -8 22 0 30 -57 139 -95 180 l-36 41 41 11 c73 20 443 90
575 110 84 12 345 46 433 55 l62 7 0 -35 c0 -56 43 -87 119 -87 75 0 156 53
167 110 4 16 7 31 8 31 10 12 644 22 799 13z m537 -34 c345 -33 491 -54 871
-126 135 -26 135 -26 145 -57 18 -64 126 -87 214 -45 51 23 81 24 183 2 80
-16 84 -19 70 -36 -6 -7 -19 -41 -28 -75 l-17 -62 -49 6 c-45 5 -49 4 -49 -16
0 -17 6 -21 35 -21 34 0 57 -21 41 -37 -3 -3 -149 17 -323 46 -417 67 -609 96
-773 116 -171 21 -505 57 -547 59 -27 1 -33 5 -33 22 0 12 -3 35 -6 52 -6 28
-3 32 21 38 21 5 25 11 21 28 -3 11 -6 29 -6 39 0 14 -5 16 -25 11 -14 -3 -25
-2 -25 4 0 5 -3 24 -6 41 -6 31 -6 31 37 31 24 0 136 -9 249 -20z m6845 -3
c99 -9 204 -19 233 -23 l52 -7 0 -76 0 -77 -81 -19 c-63 -14 -101 -16 -177
-11 -286 19 -445 25 -717 25 -546 1 -988 -32 -1545 -116 -209 -31 -190 -30
-267 -19 l-63 8 0 83 0 84 53 9 c132 25 157 28 169 21 24 -16 92 -9 127 12 21
13 71 25 140 35 58 8 138 19 176 24 77 11 334 35 488 45 80 6 97 4 97 -7 0 -8
12 -25 26 -39 21 -20 36 -24 84 -24 66 0 105 21 129 69 l13 28 442 -5 c260 -3
515 -12 621 -20z m397 -42 c27 -4 46 -16 67 -42 34 -41 33 -48 -6 -56 -31 -6
-109 -25 -135 -33 -16 -5 -18 3 -18 70 l0 76 28 -5 c15 -2 44 -7 64 -10z m415
-70 c99 -17 214 -48 206 -55 -10 -10 -185 -80 -273 -109 -60 -19 -71 -20 -135
-8 l-70 12 -3 53 c-2 36 1 53 10 56 7 2 56 17 108 34 52 17 100 29 107 27 6
-2 29 -7 50 -10z m-11020 -84 c86 -66 84 -79 -20 -110 l-70 -21 -34 26 c-24
18 -32 31 -28 43 11 28 69 121 75 119 3 -2 37 -27 77 -57z m7623 -13 l0 -63
-57 -2 c-32 -1 -68 -3 -80 -4 -12 0 -77 9 -145 22 l-123 23 60 13 c67 14 118
25 250 52 50 10 91 19 93 20 1 1 2 -27 2 -61z m2255 -8 c116 -5 244 -12 285
-16 69 -8 72 -9 35 -15 -22 -3 -105 -18 -185 -33 -95 -17 -180 -26 -247 -26
-85 0 -103 -3 -103 -15 0 -9 -9 -15 -22 -16 -13 0 -34 -2 -47 -5 -13 -2 -116
-14 -230 -25 -155 -16 -303 -22 -603 -26 l-398 -5 0 31 c0 17 -4 31 -10 31 -5
0 -10 -11 -10 -24 0 -14 -3 -27 -7 -29 -16 -9 -443 31 -456 42 -4 4 32 13 80
19 48 7 135 19 193 27 147 21 445 52 570 60 58 3 128 9 155 12 177 19 697 26
1000 13z m-2635 -70 c214 -39 210 -38 210 -74 l0 -31 -85 -18 c-95 -20 -102
-19 -435 53 -124 27 -125 27 -85 38 34 9 155 38 230 55 11 2 27 3 35 1 8 -1
67 -12 130 -24z m3244 24 c9 -3 16 -15 16 -25 0 -23 3 -23 -45 1 -47 24 -63
25 -112 5 -54 -22 -86 -72 -82 -129 l4 -44 -80 -16 c-44 -9 -86 -16 -92 -16
-16 0 -16 37 0 115 l13 59 129 27 c129 26 219 35 249 23z m131 -14 c97 -14
105 -18 105 -45 0 -20 -7 -26 -42 -35 -24 -6 -66 -18 -95 -26 -28 -7 -54 -14
-57 -14 -3 0 -6 29 -6 65 0 45 4 65 13 65 6 0 44 -5 82 -10z m-7675 -10 c13
-8 12 -10 -4 -10 -14 0 -17 -5 -12 -22 3 -13 6 -31 6 -42 0 -14 5 -17 25 -12
21 5 25 2 30 -29 3 -19 8 -51 11 -71 3 -21 10 -34 17 -31 12 4 14 30 6 106 -4
41 -2 45 25 54 33 11 46 -1 46 -48 0 -45 11 -75 26 -75 15 0 16 10 5 88 -7 52
-7 53 24 67 26 13 52 14 160 6 252 -19 650 -72 960 -126 44 -8 172 -29 285
-46 113 -18 207 -34 208 -35 2 -1 1 -11 -2 -21 -5 -15 -16 -19 -53 -19 -37 1
-48 -3 -51 -16 -3 -15 4 -18 36 -18 21 0 41 -2 44 -5 5 -5 -28 -124 -36 -132
-2 -2 -50 3 -107 12 -386 57 -481 69 -734 94 -390 39 -734 54 -1080 47 -531
-11 -846 -30 -1109 -67 -173 -24 -428 -66 -518 -85 -66 -13 -69 -13 -151 16
-171 60 -242 94 -240 115 10 109 11 112 56 124 52 14 258 56 397 81 212 39
589 83 835 99 190 12 877 13 895 1z m-2463 -44 c55 -27 78 -44 103 -81 17 -25
30 -47 28 -49 -13 -8 -78 -26 -94 -26 -11 0 -46 14 -77 30 -58 32 -57 30 -72
123 -5 34 -4 37 17 37 13 0 56 -15 95 -34z m4873 -2 c47 -9 117 -22 155 -29
39 -7 123 -23 188 -35 l119 -24 -7 -59 c-13 -108 -14 -110 -85 -129 -36 -9
-67 -15 -71 -12 -3 2 -114 22 -245 44 -257 44 -587 100 -591 100 -2 0 -3 9 -3
20 0 24 -16 24 210 0 233 -25 240 -25 240 -1 0 16 -12 19 -92 27 l-93 9 40 21
c22 11 51 37 65 58 27 42 12 41 170 10z m5743 -29 c88 -20 162 -37 164 -39 6
-6 -160 -66 -200 -72 -23 -4 -55 -14 -72 -23 -16 -9 -67 -28 -113 -40 l-82
-24 -168 23 -167 23 32 32 c25 25 53 38 113 54 44 12 85 19 91 15 6 -4 14 -2
18 4 5 8 163 67 219 81 2 1 76 -15 165 -34z m-10833 -18 c58 -35 66 -51 69
-128 1 -33 -2 -37 -38 -47 -21 -7 -44 -12 -50 -12 -19 0 -131 79 -131 93 0 24
72 127 89 127 3 0 31 -15 61 -33z m6647 -21 c114 -25 217 -46 228 -49 24 -5
43 1 -216 -62 l-186 -45 -104 20 c-57 11 -124 23 -149 28 -43 7 -45 9 -45 42
0 32 4 36 40 49 35 12 199 57 217 60 4 1 100 -19 215 -43z m-6940 -6 c24 -22
34 -42 42 -87 6 -31 20 -75 31 -97 11 -22 18 -41 17 -41 -1 -1 -20 -9 -42 -17
l-40 -16 -50 42 c-122 100 -135 116 -135 162 0 41 2 43 43 58 92 33 94 33 134
-4z m7906 10 c133 -18 364 -40 428 -40 28 0 29 -2 29 -50 0 -27 -4 -50 -8 -50
-4 0 -64 -7 -132 -16 -99 -12 -139 -13 -190 -4 -96 16 -225 39 -310 55 -41 7
-132 24 -203 36 -70 12 -124 26 -119 31 5 5 46 11 93 15 46 3 107 14 134 24
64 23 104 23 278 -1z m1777 1 c0 -5 -3 -22 -6 -38 l-6 -30 -341 -7 c-188 -3
-394 -10 -457 -16 -206 -16 -455 -40 -472 -46 -15 -5 -18 1 -18 39 l0 45 368
5 c355 4 525 14 757 42 136 16 175 17 175 6z m414 -38 c-4 -21 -8 -40 -10 -41
-1 -2 -91 -1 -198 3 -179 7 -196 9 -196 26 0 49 -1 49 212 49 l199 0 -7 -37z
m-10374 -48 c0 -26 40 -121 75 -179 19 -32 35 -62 35 -67 0 -34 -71 29 -184
163 l-48 58 53 23 c56 25 69 25 69 2z m7810 -36 c157 -27 311 -56 344 -62 l59
-12 -209 -37 c-115 -21 -227 -40 -249 -43 -25 -4 -108 6 -220 26 -99 17 -236
41 -305 53 -68 12 -120 25 -115 28 8 5 163 42 380 91 11 3 22 5 25 6 3 1 133
-22 290 -50z m2130 4 c0 -16 -4 -34 -8 -40 -16 -26 -438 -55 -807 -56 -386 -2
-475 5 -475 33 0 21 12 24 190 40 337 31 608 46 928 48 l172 2 0 -27z m274 17
c66 0 117 -2 114 -5 -7 -7 -217 -42 -308 -51 -67 -6 -73 -5 -67 10 4 10 7 27
7 38 0 20 4 21 68 15 37 -4 121 -7 186 -7z m-3587 -21 c36 -6 66 -16 69 -23 8
-22 -11 -109 -26 -117 -8 -4 -53 -19 -100 -33 -71 -21 -93 -23 -135 -15 -27 5
-110 20 -183 34 -72 14 -134 25 -136 25 -2 0 -2 8 1 18 3 15 43 30 176 69 182
54 231 60 334 42z m-1386 -23 c51 -8 148 -24 214 -36 426 -74 408 -71 403 -75
-2 -2 -102 -26 -223 -54 -121 -28 -236 -56 -255 -61 -26 -8 -72 -5 -185 12
-82 11 -151 22 -153 24 -5 3 30 117 38 127 4 4 93 -1 199 -13 238 -25 241 -25
241 -2 0 16 -19 20 -177 36 -254 25 -252 24 -245 48 3 14 11 18 26 14 12 -3
65 -12 117 -20z m5544 -1 c77 -10 163 -20 190 -24 28 -3 46 -9 40 -12 -5 -4
-84 -23 -175 -43 -144 -31 -227 -47 -443 -85 l-48 -8 6 52 c15 118 15 118 75
131 66 15 167 12 355 -11z m-9884 -21 c50 -25 51 -26 44 -62 -3 -20 -17 -61
-30 -89 l-24 -53 -78 41 c-43 23 -81 44 -84 48 -4 3 -9 27 -12 53 l-7 47 63
20 c78 25 69 25 128 -5z m9439 -86 l-12 -70 -193 3 c-106 2 -196 7 -200 11 -4
3 -4 26 0 50 l7 45 161 22 c89 13 180 26 202 30 49 8 51 4 35 -91z m-3124 17
c103 -19 198 -35 210 -35 29 0 35 -10 26 -45 -8 -27 -15 -30 -127 -57 -227
-55 -231 -55 -378 -29 -73 13 -160 28 -195 34 l-62 10 6 36 c4 20 9 38 11 41
8 8 267 78 294 79 15 1 111 -15 215 -34z m3999 25 c16 -7 13 -9 -17 -9 -43 -1
-51 -17 -12 -27 22 -6 24 -10 18 -38 -9 -44 -11 -46 -44 -39 -23 4 -30 2 -30
-11 0 -10 9 -16 25 -16 43 0 27 -19 -31 -36 -52 -15 -66 -15 -187 1 -132 16
-390 43 -437 46 -31 1 5 11 135 34 110 20 186 36 335 73 117 29 209 38 245 22z
m-2707 -24 c62 -8 114 -15 115 -17 2 -2 1 -34 -1 -71 l-4 -68 -73 0 c-68 0
-237 21 -565 70 -74 11 -142 20 -150 21 -37 2 56 24 233 55 206 36 231 37 445
10z m1408 -29 l-7 -44 -252 -7 c-371 -11 -545 -22 -951 -62 l-69 -7 5 61 c2
34 6 63 9 66 2 2 78 -1 169 -6 214 -12 589 -2 860 23 118 11 220 21 225 23 16
5 18 -1 11 -47z m-6336 33 c85 -3 127 -7 94 -8 -69 -2 -73 -7 -75 -92 0 -25
-8 -97 -17 -160 l-17 -115 -50 -7 c-66 -8 -425 -10 -504 -2 -54 6 -61 9 -61
29 0 31 -42 66 -88 72 -50 7 -106 -11 -154 -48 -43 -34 -60 -35 -231 -14 -215
27 -364 51 -583 95 -64 14 -243 59 -318 82 -98 30 -100 29 274 82 449 62 598
76 925 85 332 10 609 10 805 1z m-2949 -24 c39 -26 35 -15 56 -187 l5 -46 -37
-7 c-33 -6 -44 -3 -94 31 -31 21 -61 40 -66 43 -36 17 -154 107 -151 115 1 5
17 13 35 17 27 8 38 5 69 -20 68 -54 102 -65 102 -34 0 10 -18 31 -40 48 -22
16 -40 32 -40 35 0 7 68 26 100 28 14 0 41 -10 61 -23z m514 -19 c44 -19 104
-42 133 -52 29 -9 52 -19 50 -20 -2 -2 -51 -13 -108 -25 -58 -12 -128 -28
-157 -36 -44 -13 -103 -11 -103 3 0 2 16 25 35 50 19 25 40 60 47 79 7 19 15
34 18 34 3 0 41 -15 85 -33z m3087 -1 c62 -8 145 -17 183 -21 87 -8 569 -76
574 -81 2 -2 0 -18 -5 -36 -7 -23 -17 -34 -39 -40 -84 -23 -621 -101 -788
-114 l-88 -7 5 24 c21 100 26 134 32 207 3 45 8 82 10 82 1 0 54 -6 116 -14z
m1771 -2 c40 -9 73 -17 75 -19 1 -1 -3 -34 -9 -73 l-12 -70 -63 -17 c-62 -17
-63 -17 -306 20 -281 42 -298 46 -248 55 50 10 419 98 455 109 17 5 31 10 33
10 2 1 35 -6 75 -15z m261 -46 c82 -14 122 -25 110 -29 -23 -9 -277 -79 -285
-79 -3 0 -1 29 5 65 7 48 13 65 25 65 9 0 74 -10 145 -22z m-5921 -22 c18 -13
77 -54 132 -91 l100 -67 -60 7 c-81 9 -181 48 -240 93 -59 45 -64 57 -28 70
44 16 62 14 96 -12z m7662 -21 c138 -20 275 -41 305 -44 64 -9 52 -13 -75 -31
-105 -14 -231 -36 -385 -67 -115 -23 -131 -24 -205 -13 l-80 13 -39 67 c-22
37 -40 71 -40 76 -1 13 157 43 214 40 30 -2 168 -20 305 -41z m-3923 5 l-4
-30 -132 0 c-72 0 -175 -3 -228 -7 l-98 -6 0 26 c0 15 1 28 3 28 2 2 298 14
398 17 l66 2 -5 -30z m5818 7 c0 -23 -3 -24 -152 -35 -329 -25 -654 -35 -875
-26 -96 4 -171 9 -169 11 5 6 235 28 451 44 83 6 283 14 445 18 162 4 296 8
298 9 1 1 2 -8 2 -21z m690 -17 c249 -26 387 -44 399 -50 9 -5 -25 -16 -85
-30 -54 -12 -119 -28 -144 -36 -25 -8 -107 -25 -182 -39 -137 -25 -139 -25
-410 -14 -150 7 -274 13 -276 14 -2 2 17 107 21 111 1 2 51 9 110 17 l107 13
0 -32 c0 -42 23 -59 81 -59 66 0 104 29 129 98 l10 28 77 -6 c43 -3 116 -10
163 -15z m-4026 -7 c50 -9 92 -18 94 -19 5 -3 -21 -149 -29 -158 -13 -14 -168
-7 -290 14 -63 11 -148 25 -189 31 -41 6 -76 12 -77 13 -1 1 0 11 3 21 4 16
27 26 107 47 56 14 131 35 167 46 83 25 104 26 214 5z m859 -45 c-8 -29 -17
-55 -19 -57 -3 -3 -173 24 -224 36 -18 4 10 15 105 39 72 17 135 33 142 33 9
1 8 -13 -4 -51z m-7254 -25 c36 -32 94 -78 128 -103 34 -25 62 -48 62 -51 1
-4 -36 -19 -80 -34 l-81 -27 -42 39 c-67 63 -176 176 -176 184 0 6 92 45 114
48 4 0 38 -25 75 -56z m1361 37 c266 -82 633 -155 965 -190 55 -6 116 -13 135
-16 l36 -5 -6 -47 c-5 -46 -6 -47 -42 -50 -51 -4 -53 -32 -3 -32 37 0 42 -10
29 -56 -5 -19 -10 -20 -72 -13 -232 27 -257 31 -265 45 -23 40 -121 57 -175
30 -24 -11 -42 -10 -142 10 -300 61 -656 168 -865 259 l-40 18 90 19 c187 41
211 46 250 47 22 0 69 -8 105 -19z m5263 -10 c31 -6 83 -14 115 -20 31 -5 61
-10 66 -10 24 0 -9 -11 -114 -40 -63 -17 -132 -36 -153 -42 -21 -6 -39 -9 -41
-7 -2 2 1 35 7 72 10 66 11 68 36 62 14 -3 52 -10 84 -15z m3092 -32 c-13 -83
-5 -78 -123 -79 -281 -2 -776 -28 -922 -49 -36 -5 -100 -12 -142 -15 l-77 -7
6 78 c3 44 6 80 7 80 0 1 96 -2 211 -7 228 -10 664 2 890 25 72 8 136 14 143
15 11 1 12 -9 7 -41z m-4495 18 c14 -3 90 -14 170 -26 80 -11 170 -25 200 -31
l55 -12 -260 -59 c-372 -84 -605 -131 -614 -123 -5 6 50 197 60 209 4 5 56 19
116 31 102 22 196 26 273 11z m3168 -2 l52 -7 0 -44 c0 -39 -2 -44 -17 -38
-43 16 -76 16 -118 1 -41 -16 -87 -58 -97 -88 -3 -9 -21 -10 -84 0 -43 6 -175
23 -291 38 -117 15 -211 30 -208 32 3 3 24 8 47 12 24 4 111 19 193 34 178 31
398 64 440 65 17 0 54 -2 83 -5z m2586 -51 c-8 -27 -19 -67 -25 -91 -6 -23
-14 -44 -18 -46 -4 -3 -42 2 -86 9 -71 12 -301 41 -380 47 -18 2 24 14 100 30
72 15 182 43 245 62 63 18 129 34 147 35 l32 1 -15 -47z m206 7 c79 -16 145
-31 147 -33 7 -7 -22 -24 -97 -57 -187 -81 -187 -81 -234 -69 l-42 10 25 90
c18 62 31 89 41 89 9 0 81 -13 160 -30z m-10210 -26 c154 -65 397 -144 600
-195 129 -33 301 -69 327 -69 29 0 31 11 -29 -137 -28 -68 -47 -103 -58 -103
-13 0 -211 41 -218 45 -1 1 4 14 12 29 31 61 -22 110 -113 103 -46 -3 -59 -9
-83 -35 -15 -18 -33 -32 -40 -32 -18 0 -271 87 -368 126 -115 47 -136 57 -277
127 -104 51 -123 64 -123 83 0 19 8 25 43 34 48 13 82 23 147 44 67 22 88 19
180 -20z m3791 -84 c-16 -56 -31 -103 -33 -105 -18 -17 -841 -126 -854 -112
-6 5 21 195 28 203 3 2 25 7 49 9 130 14 322 36 379 45 174 26 446 72 450 76
14 15 8 -26 -19 -116z m2295 95 c82 -14 153 -25 158 -25 9 0 -1 -71 -12 -82
-4 -3 -65 -20 -137 -37 l-130 -31 -125 21 c-292 49 -324 55 -327 65 -4 13 337
112 388 113 19 1 102 -10 185 -24z m-3169 -36 c-3 -22 -7 -42 -9 -45 -4 -3
-150 -14 -370 -29 l-88 -5 0 32 c0 18 3 43 6 55 7 24 0 24 358 31 l109 2 -6
-41z m1916 6 c37 -4 67 -9 67 -11 0 -10 -31 -199 -33 -199 -1 -1 -83 -21 -182
-44 -272 -66 -417 -99 -560 -126 -71 -14 -146 -30 -165 -35 -19 -5 -62 -13
-95 -19 -33 -5 -112 -19 -175 -30 -112 -19 -344 -53 -446 -65 -51 -6 -52 -6
-93 39 -22 24 -41 54 -41 66 0 12 -5 19 -12 17 -8 -3 -12 -29 -13 -74 0 -62
-2 -69 -20 -71 -11 -1 -65 -6 -120 -12 -85 -10 -533 -41 -582 -41 -13 0 -14 2
-2 17 8 9 21 66 30 127 l15 111 40 7 c21 4 78 7 127 7 80 1 87 -1 87 -18 0
-47 97 -67 167 -35 29 14 42 28 69 72 3 5 42 10 164 22 130 13 409 51 578 78
l113 19 -5 -21 c-3 -12 -12 -42 -20 -68 -9 -27 -11 -48 -6 -48 6 0 13 -1 16
-2 4 -2 17 31 29 72 l22 75 127 22 c127 22 666 141 761 167 28 8 59 12 70 11
11 -2 50 -7 88 -10z m280 -46 c81 -13 147 -26 147 -29 -1 -15 -54 -40 -125
-60 -169 -46 -228 -61 -232 -56 -5 4 14 136 23 164 2 7 12 11 21 8 10 -2 84
-15 166 -27z m3491 6 c-17 -8 -43 -28 -58 -46 l-27 -31 -161 -10 c-120 -7
-163 -7 -166 2 -3 8 -8 8 -18 -1 -11 -9 -95 -11 -345 -6 -307 6 -418 16 -329
31 149 24 562 55 870 65 124 4 234 8 245 9 14 0 10 -4 -11 -13z m536 -3 c0 -6
-345 -53 -387 -52 -8 0 -13 13 -13 30 l0 30 200 0 c110 0 200 -4 200 -8z
m-9553 -112 c13 -58 22 -113 20 -123 -2 -14 -24 -3 -121 55 -65 40 -127 78
-138 84 -43 25 -37 30 64 61 153 47 149 49 175 -77z m7058 95 c61 -9 157 -22
215 -31 58 -8 140 -17 183 -21 42 -3 77 -10 77 -14 0 -5 -12 -9 -28 -9 -29 0
-311 -48 -477 -81 -61 -12 -115 -17 -138 -13 -37 6 -38 7 -30 37 4 18 8 55 8
82 0 72 10 74 190 50z m3025 -26 c232 -28 280 -38 280 -59 0 -19 -32 -35 -100
-49 -25 -6 -89 -21 -143 -35 -296 -75 -856 -143 -1344 -162 l-173 -7 0 111 0
111 53 5 c28 3 105 8 169 11 98 5 121 4 140 -9 33 -23 95 -20 142 8 28 16 65
26 116 30 41 4 163 19 270 33 299 40 301 40 365 35 33 -2 134 -12 225 -23z
m-6764 -4 c-3 -8 -8 -45 -12 -80 -4 -36 -10 -67 -14 -70 -4 -2 -23 1 -43 7
-49 15 -110 -3 -151 -45 -30 -30 -32 -30 -154 -35 l-124 -5 6 29 c3 16 11 62
16 103 6 41 11 76 13 76 1 1 94 8 207 14 113 7 207 14 209 17 2 2 15 4 29 4
17 0 23 -4 18 -15z m-3125 -74 c156 -75 343 -149 509 -202 58 -18 107 -34 108
-35 2 -2 -13 -46 -35 -98 -45 -114 -24 -111 -237 -31 -167 63 -207 80 -348
147 -96 46 -108 54 -108 77 0 14 -9 68 -19 119 -10 50 -17 92 -16 92 1 0 67
-31 146 -69z m2639 44 c-1 -23 -30 -186 -35 -195 -3 -5 -118 -9 -260 -10 -209
0 -256 2 -261 13 -4 12 -35 13 -170 9 l-164 -5 0 42 c0 24 5 43 13 46 6 2 84
8 172 12 138 7 160 10 163 25 3 15 -6 16 -75 12 -75 -5 -77 -4 -51 11 15 8 32
23 37 33 8 16 35 17 320 17 201 0 311 -4 311 -10z m3285 -26 c55 -11 111 -19
124 -19 35 0 17 -13 -37 -26 -90 -22 -208 -56 -367 -104 -133 -41 -557 -160
-569 -160 -4 0 34 223 39 228 1 2 52 16 111 32 60 16 130 36 157 44 l47 14 0
-29 c0 -64 79 -99 171 -75 57 15 95 46 116 94 16 38 11 38 208 1z m-6350 -24
c36 -25 107 -69 157 -98 50 -29 96 -60 101 -68 10 -17 1 -136 -12 -157 -6 -10
-33 2 -105 45 -54 32 -104 65 -111 73 -70 82 -103 109 -140 116 -38 7 -126 63
-126 81 0 8 123 50 153 52 9 1 46 -19 83 -44z m7895 26 c0 -18 59 -33 102 -26
61 10 121 10 491 0 l327 -8 0 -110 0 -109 -187 6 c-226 8 -452 23 -548 36 -38
5 -151 19 -250 30 -99 12 -247 30 -330 42 -82 11 -175 23 -205 27 -69 9 -58
14 120 45 396 71 480 83 480 67z m-1189 -62 c68 -11 126 -23 128 -25 2 -2 -1
-21 -7 -42 l-12 -38 -132 -33 c-139 -35 -278 -71 -363 -96 -27 -8 -106 -31
-175 -51 -69 -19 -145 -42 -170 -50 -101 -34 -637 -176 -860 -228 -36 -9 -103
-24 -150 -35 -94 -22 -458 -94 -560 -111 -263 -44 -584 -90 -629 -90 l-26 0 3
94 3 93 46 7 c73 10 100 7 107 -10 11 -28 6 -94 -8 -129 -8 -19 -11 -35 -7
-35 17 0 36 67 36 126 l0 62 110 16 c316 48 715 121 970 180 207 48 207 48
247 31 72 -28 144 -12 203 48 34 34 53 44 130 64 126 33 235 64 500 143 282
84 443 128 471 129 12 1 77 -8 145 -20z m-1201 -45 c0 -8 -5 -46 -11 -85 -11
-66 -13 -69 -30 -53 -28 25 -102 30 -154 10 -58 -23 -105 -76 -105 -120 l0
-33 -77 -17 c-196 -45 -248 -56 -388 -84 -376 -77 -800 -145 -814 -131 -3 2
-3 25 -2 52 2 36 -4 59 -27 102 -17 30 -26 55 -22 55 5 0 89 11 187 25 385 53
838 143 1273 254 186 47 170 44 170 25z m-3555 -54 c50 -5 98 -10 108 -10 11
0 17 -8 17 -21 0 -17 5 -20 30 -17 16 1 30 -1 31 -5 1 -4 -4 -55 -11 -113
l-12 -107 -62 6 c-126 12 -357 44 -478 68 l-56 11 34 81 c20 45 37 83 40 86 2
2 13 -4 24 -14 47 -42 171 -22 195 32 6 15 16 21 30 18 11 -3 61 -9 110 -15z
m838 -44 c195 0 247 -2 243 -12 -3 -7 -8 -40 -12 -73 -6 -57 -15 -73 -28 -52
-10 15 -63 20 -102 9 -50 -13 -104 -67 -104 -103 l0 -28 -232 7 c-128 3 -275
9 -326 12 l-92 6 5 32 c6 42 25 185 25 196 0 13 115 18 255 11 66 -3 232 -6
368 -5z m-2377 -55 c143 -70 389 -169 502 -202 23 -7 42 -15 42 -18 0 -3 -14
-33 -30 -66 -17 -33 -30 -67 -30 -77 0 -26 -12 -23 -140 26 -184 71 -199 77
-332 143 -126 61 -128 63 -118 88 6 15 11 53 13 86 1 32 5 59 8 59 4 0 42 -17
85 -39z m-193 -117 c16 -9 15 -13 -13 -52 -70 -97 -259 -134 -340 -65 -41 34
-38 48 10 49 22 1 55 12 74 23 38 24 76 91 76 134 l0 27 88 -53 c48 -30 95
-58 105 -63z m857 87 c0 -19 61 -34 116 -28 40 4 81 -1 152 -19 53 -13 107
-24 120 -24 12 0 22 -4 22 -9 0 -12 -71 -184 -80 -194 -4 -4 -29 -3 -56 4 -94
22 -338 90 -350 97 -9 5 -3 30 24 95 31 76 52 107 52 78z m595 -111 c175 -28
335 -50 375 -50 62 0 64 -5 50 -121 -6 -57 -12 -104 -13 -105 -2 -1 -76 7
-222 26 -81 10 -427 70 -432 74 -1 1 16 48 39 105 37 90 45 102 63 97 11 -3
74 -15 140 -26z m2065 -139 l0 -108 -87 -12 c-237 -31 -768 -55 -1058 -47
-177 5 -474 23 -482 30 -4 3 24 206 29 212 4 3 62 1 130 -5 68 -6 218 -13 333
-16 116 -4 225 -11 243 -17 25 -8 44 -6 82 6 29 9 83 16 132 16 94 0 589 37
596 45 3 3 23 5 44 5 l38 0 0 -109z m-2599 10 c79 -21 170 -44 202 -51 56 -11
72 -25 42 -36 -8 -4 -45 1 -83 10 -37 8 -121 27 -187 41 -166 36 -156 32 -143
60 6 14 14 22 18 20 3 -2 71 -22 151 -44z m334 -81 c94 -21 362 -63 563 -86
33 -4 42 -9 42 -25 0 -25 20 -25 27 1 5 18 11 20 47 15 191 -25 763 -33 1051
-15 166 11 495 37 516 42 11 2 15 -14 17 -70 l3 -74 -31 7 c-48 11 -97 -3
-137 -38 -33 -29 -45 -33 -147 -45 -163 -18 -904 -27 -1111 -13 -215 15 -392
33 -570 61 -172 27 -377 68 -386 78 -4 4 5 36 20 72 15 36 30 73 34 83 7 20 8
20 62 7z m-320 -64 c168 -39 190 -46 187 -62 -2 -11 -5 -20 -7 -22 -9 -10
-385 85 -417 104 -16 10 5 34 26 29 11 -3 107 -25 211 -49z"/>
<path d="M953 3571 c-17 -11 -50 -44 -73 -72 -88 -112 -133 -238 -152 -429 -9
-98 -8 -130 6 -211 21 -124 20 -171 -2 -198 -10 -13 -95 -53 -212 -100 -107
-43 -225 -92 -262 -110 -36 -17 -70 -31 -75 -31 -4 0 -37 40 -73 89 -36 49
-71 90 -77 90 -20 1 -17 -4 44 -85 32 -42 64 -84 70 -93 11 -14 6 -20 -39 -44
-39 -21 -54 -25 -64 -16 -13 11 -18 6 -15 -14 1 -4 -6 -15 -14 -24 -20 -19 -7
-36 28 -37 18 -1 44 -25 99 -91 l74 -89 -69 -33 -69 -33 -20 25 c-25 32 -45
22 -22 -12 16 -26 12 -34 -20 -46 -5 -2 -6 -11 -3 -21 6 -15 14 -17 41 -12 30
6 37 3 58 -23 12 -17 44 -54 70 -83 40 -44 44 -54 30 -59 -9 -4 -38 -16 -64
-28 l-47 -20 -28 39 c-15 22 -34 40 -40 40 -18 0 -16 -7 12 -44 29 -39 30 -45
8 -61 -24 -18 -6 -38 27 -32 24 5 35 -3 98 -76 39 -45 84 -95 101 -111 17 -17
31 -32 31 -35 0 -3 -28 -15 -61 -26 l-62 -19 -39 44 c-21 25 -53 66 -71 92
-27 41 -57 62 -57 42 0 -3 29 -44 65 -90 36 -47 66 -89 68 -95 1 -5 -21 -20
-48 -32 -60 -27 -75 -36 -75 -47 0 -20 38 -18 99 5 l66 26 114 -110 c72 -71
108 -113 100 -116 -8 -2 -63 -22 -124 -44 -253 -90 -269 -97 -242 -119 11 -9
26 -8 68 7 30 10 122 42 206 70 l152 52 45 -33 c25 -18 45 -36 46 -39 0 -4
-11 -9 -24 -13 -34 -8 -103 -88 -115 -132 -26 -93 -7 -162 63 -230 60 -58 117
-82 217 -91 122 -11 223 28 298 114 l41 46 73 -36 c128 -63 219 -103 362 -157
77 -29 142 -55 144 -57 3 -2 -3 -20 -13 -40 -9 -20 -13 -39 -9 -43 4 -3 100
-28 213 -53 113 -26 214 -50 226 -53 16 -4 24 1 34 25 7 17 15 31 19 31 3 0
40 -7 81 -16 190 -39 443 -79 605 -94 66 -6 134 -13 150 -15 96 -13 551 -26
740 -20 225 6 473 20 558 31 45 6 47 6 47 -18 0 -14 8 -32 18 -41 21 -20 92
-23 125 -6 32 17 77 61 77 76 0 15 15 19 135 32 580 66 1420 249 2125 461 58
17 125 38 150 45 25 7 117 34 206 58 88 24 171 48 183 52 23 7 23 7 7 -16 -25
-36 -21 -84 10 -108 55 -44 197 -14 228 48 7 14 19 50 27 79 7 29 18 57 24 61
9 8 180 51 200 51 17 0 -7 -96 -36 -142 -36 -59 -33 -73 5 -23 31 40 56 105
56 145 0 23 5 28 31 32 17 3 54 1 82 -4 143 -23 414 -60 602 -82 470 -56 459
-55 825 -71 25 -1 82 -3 128 -4 l83 -1 -3 -62 -3 -62 -134 -23 c-132 -22 -150
-27 -138 -39 6 -6 141 12 247 33 24 4 26 3 22 -35 -4 -45 4 -41 -195 -73 -52
-9 -77 -17 -77 -26 0 -14 36 -12 95 4 19 5 19 5 3 -13 -28 -32 -39 -72 -27
-97 17 -31 28 -37 77 -37 85 0 142 52 142 130 0 45 2 48 30 54 39 7 39 26 -1
26 -29 0 -30 2 -27 38 3 32 7 37 31 40 16 2 27 9 27 19 0 11 -6 14 -25 9 -25
-6 -25 -6 -25 58 0 60 1 64 20 59 24 -6 337 11 590 33 272 23 393 39 760 99
121 19 259 51 348 79 21 7 22 5 16 -18 -4 -15 -2 -26 4 -26 6 0 13 12 16 27 6
25 16 31 96 57 l90 29 77 -17 c43 -10 141 -33 218 -53 184 -47 185 -47 185
-35 0 16 -257 87 -388 108 -52 8 -61 20 -24 29 15 3 77 30 137 60 l110 54 83
-23 c52 -15 82 -20 79 -12 -3 10 -60 33 -122 50 -19 5 -19 6 3 21 23 17 29 40
12 50 -6 4 -31 -7 -56 -24 -37 -24 -50 -28 -72 -21 -15 5 -88 21 -162 36 -74
15 -141 30 -148 34 -9 4 10 15 49 30 55 20 75 22 151 16 74 -5 88 -3 88 9 0
11 -12 15 -50 15 -27 0 -50 4 -50 9 0 5 34 22 75 39 l74 30 102 -29 c95 -28
125 -31 103 -10 -5 5 -45 19 -89 31 -44 12 -81 23 -83 25 -2 1 13 12 33 23 33
20 45 45 27 56 -5 3 -38 -10 -73 -29 -46 -24 -72 -32 -92 -28 -25 5 -26 7 -14
22 31 35 38 60 26 83 -7 13 -17 26 -23 30 -6 4 -3 9 9 13 11 4 53 21 93 38
l73 30 56 -17 c53 -17 83 -15 53 4 -27 18 -241 74 -378 101 -35 6 -60 15 -55
19 4 3 42 19 83 35 41 15 110 43 152 63 l77 34 47 -16 c53 -18 84 -21 84 -7 0
5 -22 15 -50 22 -47 12 -68 29 -35 29 9 0 15 9 15 21 0 23 -6 23 -66 -2 -27
-11 -49 -9 -162 16 -72 16 -129 32 -126 37 3 4 12 8 20 8 22 0 175 64 282 117
66 33 92 51 92 65 0 27 -17 23 -135 -33 -59 -29 -165 -73 -236 -99 l-129 -47
-87 14 c-48 8 -89 16 -91 18 -3 2 -7 24 -9 47 -10 94 -46 171 -145 311 -52 73
-72 111 -81 152 -23 112 -29 54 -22 -202 4 -142 8 -262 9 -268 0 -5 -3 -9 -9
-9 -196 30 -704 55 -1028 52 -163 -2 -297 0 -297 4 0 8 161 482 166 487 7 8
454 -65 454 -74 0 -5 -18 -62 -40 -125 -22 -63 -42 -120 -45 -127 -3 -8 -15
-6 -42 8 -43 22 -62 23 -117 8 -80 -22 -109 -87 -61 -134 34 -35 126 -36 176
-2 31 20 40 39 95 197 33 96 65 188 72 203 6 15 15 40 18 55 3 15 17 58 30 96
13 38 23 70 21 71 -1 1 -103 19 -227 39 -124 21 -237 40 -251 42 -24 5 -26 2
-44 -58 -10 -35 -56 -175 -102 -313 -139 -409 -127 -379 -142 -361 -38 45
-148 40 -198 -10 -22 -22 -36 -25 -161 -34 -180 -13 -592 -59 -689 -76 l-31
-6 5 241 c5 203 4 241 -8 241 -27 -1 -389 -57 -394 -62 -2 -2 -5 -100 -5 -218
-1 -118 -4 -227 -7 -241 -5 -25 -11 -27 -171 -58 -92 -18 -196 -40 -232 -48
-62 -15 -70 -14 -194 11 -70 14 -132 29 -137 32 -5 3 -9 82 -9 175 l0 169 63
-39 c34 -22 70 -51 81 -64 26 -34 31 -103 12 -157 -19 -56 -12 -66 10 -14 17
40 19 67 12 220 -4 106 -18 134 -112 227 -30 30 -58 66 -62 81 -18 71 -24 3
-24 -259 l0 -286 -21 12 c-24 12 -83 4 -115 -16 -19 -12 -33 -11 -105 6 -46
11 -131 31 -189 44 -58 14 -141 34 -185 44 -46 11 -79 24 -77 30 3 15 144 265
153 271 4 3 33 54 64 114 44 83 54 110 44 117 -18 11 -444 169 -456 169 -5 0
-23 -26 -38 -57 -21 -42 -267 -484 -279 -500 -2 -2 -283 64 -536 125 -69 17
-174 42 -235 56 -60 14 -119 28 -130 31 -19 6 -20 13 -17 208 1 111 3 246 5
300 2 84 0 97 -14 97 -15 0 -17 -29 -20 -289 -2 -159 -7 -292 -11 -296 -3 -3
-23 -2 -45 4 -34 10 -441 104 -588 136 -33 8 -190 43 -350 78 -369 82 -531
110 -800 137 -60 6 -126 13 -146 16 l-35 6 22 121 c13 67 23 130 24 140 0 16
-21 17 -309 17 l-309 0 -6 -27 c-3 -16 -13 -73 -21 -128 -9 -54 -17 -101 -19
-103 -3 -2 -98 -8 -213 -13 -307 -13 -694 -61 -948 -116 -197 -42 -359 -81
-394 -94 -20 -8 -22 -7 -16 8 77 187 93 338 55 525 -36 172 -100 298 -154 298
-11 0 -35 -9 -53 -19z m132 -265 c92 -92 -25 -379 -224 -544 -64 -54 -66 -51
-66 118 0 102 5 139 24 200 46 151 126 250 201 250 30 0 47 -7 65 -24z m2208
-213 c-3 -16 -9 -52 -15 -82 l-10 -53 -56 6 c-32 3 -159 8 -285 12 -202 6
-227 9 -223 23 3 9 8 37 12 63 l6 47 122 4 c66 1 196 4 287 5 l166 2 -4 -27z
m-626 -185 c-3 -13 -15 -85 -28 -160 -22 -136 -22 -138 -48 -139 -128 -2 -476
-32 -641 -54 -385 -52 -693 -111 -970 -184 -126 -34 -130 -33 -130 29 0 30 9
44 51 85 28 28 78 87 111 133 33 45 62 82 63 82 2 0 65 16 141 36 432 110 953
182 1393 193 61 1 63 0 58 -21z m450 13 c72 -3 135 -9 138 -13 6 -6 -32 -267
-40 -276 -1 -1 -15 4 -31 13 -41 21 -112 19 -157 -5 -32 -18 -64 -21 -214 -27
-170 -6 -175 -6 -170 13 3 10 16 83 28 162 l22 142 146 -1 c80 0 205 -4 278
-8z m7041 -33 c176 -26 222 -36 222 -48 -1 -42 -9 -42 -231 -5 -118 20 -219
37 -226 40 -11 4 -7 45 6 45 3 1 106 -14 229 -32z m-6668 2 c173 -19 308 -39
425 -60 122 -22 211 -40 250 -50 22 -5 141 -33 265 -60 228 -51 259 -58 455
-104 61 -14 151 -34 200 -46 176 -40 175 -40 175 -70 0 -31 18 -26 -229 -66
-111 -19 -135 -17 -336 22 -73 14 -120 22 -300 54 -275 48 -816 99 -1059 100
l-99 0 7 38 c3 20 14 88 23 150 14 87 21 112 33 112 9 0 94 -9 190 -20z m3241
-160 c202 -73 206 -75 196 -97 -6 -13 -14 -23 -18 -23 -7 0 -421 151 -427 156
-9 6 21 45 31 42 7 -3 105 -38 218 -78z m-86 -135 c114 -41 209 -76 210 -77 3
-3 -126 -233 -136 -243 -4 -3 -19 5 -33 18 -45 42 -108 47 -173 16 l-44 -21
-112 27 c-62 16 -114 29 -116 31 -2 2 23 50 55 106 99 176 125 218 133 218 4
0 101 -34 216 -75z m-3705 -63 c0 -101 158 -121 251 -32 21 20 39 45 39 54 0
15 9 16 83 12 45 -3 150 -8 232 -11 282 -11 785 -70 1015 -120 41 -9 115 -23
165 -30 60 -10 94 -20 102 -31 9 -12 20 -15 40 -9 26 6 388 -55 366 -62 -5 -2
-99 -18 -208 -37 -181 -30 -200 -35 -197 -52 2 -11 5 -20 5 -21 1 -1 41 6 90
16 48 10 87 17 87 16 0 -1 -16 -19 -35 -39 -19 -21 -35 -42 -35 -47 0 -13 -38
-11 -117 5 -163 35 -470 83 -723 115 -365 46 -887 68 -1265 52 -131 -6 -240
-9 -241 -8 -1 1 7 59 18 129 18 114 23 127 42 131 11 2 81 5 154 6 l132 1 0
-38z m5640 -126 l0 -164 -42 5 c-52 6 -105 -25 -128 -74 -12 -25 -23 -34 -50
-38 -19 -3 -54 -10 -77 -16 -88 -20 -83 -29 -83 145 0 84 3 174 6 198 l6 45
177 31 c97 16 179 30 184 31 4 0 7 -73 7 -163z m-5974 137 c-2 -10 -12 -67
-22 -128 -9 -60 -18 -111 -19 -113 -1 -1 -18 5 -38 13 -52 21 -96 19 -152 -9
-28 -15 -75 -27 -114 -31 -293 -28 -685 -89 -968 -150 l-167 -36 -50 22 c-28
12 -81 24 -118 27 -65 4 -66 5 -71 36 -15 86 -18 116 -14 116 3 0 72 18 154
40 323 88 776 166 1178 205 88 8 174 16 190 18 17 2 72 5 123 6 85 1 93 -1 88
-16z m8559 -108 c69 -84 121 -235 81 -235 -9 0 -16 4 -16 9 0 4 -22 38 -50 74
-62 82 -107 170 -116 226 l-7 44 37 -39 c21 -21 53 -57 71 -79z m-10662 12
c-50 -52 -107 -117 -127 -145 l-37 -51 -59 62 c-53 54 -57 62 -42 73 20 13
329 149 351 153 2 1 -37 -41 -86 -92z m4985 28 c192 -47 267 -65 457 -110 61
-14 140 -33 177 -42 l68 -16 -22 -38 c-21 -39 -22 -39 -42 -20 -34 30 -62 41
-110 41 -56 0 -90 -15 -107 -47 -15 -27 -14 -28 -144 2 -80 17 -462 95 -470
95 -3 0 -5 22 -5 49 l0 49 45 6 c36 6 45 11 45 27 0 18 -4 20 -45 13 -41 -6
-45 -5 -45 15 0 11 2 21 5 21 3 0 90 -20 193 -45z m-5218 -188 l54 -57 -24
-50 c-30 -60 -56 -72 -83 -39 -10 13 -31 38 -45 54 -15 17 -42 49 -60 72 l-33
42 58 29 c43 22 60 26 68 17 5 -6 35 -37 65 -68z m6050 -12 c58 -14 115 -28
126 -30 12 -3 24 -14 27 -24 13 -50 143 -82 192 -47 18 12 33 11 115 -9 207
-49 367 -86 403 -92 35 -5 37 -8 37 -42 0 -42 7 -54 38 -70 34 -18 98 -4 136
29 l31 28 85 -17 85 -18 -40 -11 c-22 -6 -86 -22 -143 -35 -95 -23 -107 -24
-170 -12 -71 14 -895 195 -999 220 -34 8 -71 15 -83 15 -11 0 -20 3 -20 8 -1
10 64 132 70 132 3 0 52 -11 110 -25z m-742 -40 c300 -61 309 -63 370 -92 43
-21 61 -24 99 -19 25 3 62 2 82 -3 42 -11 28 -8 613 -137 246 -54 444 -101
440 -105 -7 -5 -162 -49 -176 -49 -4 0 -4 5 -1 10 4 7 -101 10 -309 10 -310 0
-317 0 -473 31 -87 17 -224 43 -305 58 -140 27 -148 30 -180 64 -53 56 -142
72 -231 41 -44 -15 -55 -15 -150 2 -56 9 -103 18 -104 19 -2 1 6 19 17 40 14
27 20 59 20 101 0 64 3 69 49 73 7 0 115 -19 239 -44z m-4752 -48 l7 -57 -47
-19 c-25 -11 -69 -41 -96 -67 l-50 -47 -56 44 c-30 24 -62 49 -70 55 -19 15
-18 24 9 57 17 21 52 38 152 71 97 32 132 40 137 31 4 -7 10 -38 14 -68z
m2650 75 c11 -7 15 -23 29 -104 5 -34 4 -38 -15 -38 -25 0 -34 -21 -26 -56 6
-21 11 -25 30 -20 20 5 24 2 28 -22 l4 -27 -301 4 c-659 8 -1226 -44 -1761
-164 -151 -34 -148 -34 -163 23 -13 53 -46 108 -94 159 -17 18 -29 34 -26 36
2 2 42 12 89 21 47 10 128 26 180 37 112 23 429 75 515 84 33 4 103 13 155 21
52 8 112 14 132 14 35 0 37 -2 40 -37 8 -93 152 -111 243 -31 19 16 39 44 43
62 8 30 10 31 78 37 104 8 807 10 820 1z m429 -27 c251 -23 506 -59 844 -121
178 -32 181 -33 181 -54 0 -30 48 -69 95 -76 50 -7 95 1 147 27 36 18 39 18
133 1 52 -11 98 -21 100 -24 3 -3 -1 -18 -10 -34 -8 -16 -20 -48 -25 -71 l-11
-43 -49 0 c-43 0 -50 -3 -50 -20 0 -17 7 -20 40 -20 33 0 40 -3 40 -20 0 -23
1 -23 -71 -10 -50 9 -389 63 -594 95 -49 8 -135 21 -190 30 -128 20 -297 40
-560 65 -115 11 -211 25 -213 30 -2 6 -14 7 -26 4 -21 -5 -24 -1 -29 41 -8 54
-4 65 24 65 21 0 22 3 13 49 -5 26 -10 30 -29 25 -19 -5 -23 0 -29 27 -11 59
-11 60 47 54 28 -3 129 -12 222 -20z m6765 0 c118 -8 252 -20 298 -27 l82 -11
0 -76 0 -76 -83 -19 c-80 -17 -92 -17 -302 -1 -321 25 -923 23 -1270 -4 -352
-28 -511 -45 -770 -83 -217 -32 -344 -40 -397 -25 -28 7 -28 9 -28 86 l0 79
48 11 c89 21 167 29 177 20 18 -18 91 -10 120 13 21 16 57 25 164 39 258 35
592 68 681 69 48 0 57 -3 65 -22 15 -34 77 -61 123 -53 51 8 100 39 112 70 9
24 13 24 122 27 208 6 641 -3 858 -17z m505 -51 c21 -3 39 -17 58 -43 l27 -40
-52 -14 c-29 -8 -65 -18 -80 -21 -14 -3 -33 -9 -42 -12 -14 -5 -16 4 -16 69
l0 76 38 -5 c20 -3 51 -7 67 -10z m442 -74 c49 -11 96 -22 104 -24 8 -2 28 -7
44 -11 l30 -7 -46 -22 c-25 -12 -92 -39 -150 -60 -57 -20 -114 -41 -125 -46
-13 -5 -51 -4 -95 4 l-74 12 -3 56 -3 56 33 6 c18 3 65 17 103 30 88 30 75 29
182 6z m-11086 -57 c25 -21 56 -45 70 -55 36 -24 16 -47 -66 -75 l-69 -23 -30
27 c-17 16 -32 29 -34 30 -9 4 66 133 77 133 3 0 27 -17 52 -37z m7649 -35 l0
-63 -83 -2 c-47 -1 -128 6 -191 17 -60 11 -114 20 -119 20 -6 0 -8 2 -5 5 4 5
364 82 391 84 4 1 7 -27 7 -61z m2325 -8 c121 -6 234 -13 250 -17 29 -6 29 -7
-15 -15 -210 -39 -347 -58 -427 -58 -73 0 -93 -3 -93 -14 0 -9 -16 -16 -47
-19 -27 -3 -145 -15 -263 -27 -162 -16 -310 -23 -602 -27 l-388 -5 0 31 c0 38
-17 41 -22 4 -3 -26 -5 -27 -53 -25 -107 6 -391 35 -403 41 -14 8 186 40 413
66 72 8 168 20 215 25 90 11 467 38 585 43 197 8 656 6 850 -3z m547 -54 c18
-27 6 -33 -29 -15 -100 51 -210 -18 -201 -125 3 -43 2 -44 -32 -50 -19 -3 -57
-10 -84 -16 -31 -6 -53 -7 -59 -1 -6 6 -5 40 3 89 l13 79 66 11 c36 6 102 20
146 30 82 19 164 18 177 -2z m-3294 -5 c54 -11 126 -25 162 -31 98 -17 96 -16
92 -53 -4 -32 -4 -32 -90 -49 l-87 -17 -170 35 c-93 19 -186 39 -205 44 -19 6
-48 10 -64 10 -54 0 -13 16 109 44 66 16 125 29 130 31 18 6 26 5 123 -14z
m3434 -2 c87 -12 88 -12 88 -40 0 -25 -5 -29 -42 -39 -49 -12 -115 -29 -140
-36 -16 -5 -18 3 -18 60 0 44 4 66 12 66 6 0 51 -5 100 -11z m-7677 -9 c-3 -5
-13 -10 -22 -10 -11 0 -14 -6 -9 -22 3 -13 6 -31 6 -41 0 -13 5 -16 24 -11 25
6 36 -13 36 -68 0 -37 10 -58 27 -58 12 0 13 11 8 58 -4 31 -9 64 -11 74 -4
12 4 18 27 23 37 8 49 -4 49 -50 0 -45 11 -75 26 -75 15 0 16 10 5 88 -7 52
-7 54 22 68 23 12 50 14 126 10 146 -10 446 -44 631 -72 91 -14 206 -32 255
-39 153 -23 600 -97 603 -100 2 -2 1 -12 -2 -22 -5 -15 -14 -17 -57 -14 -45 3
-50 1 -47 -15 2 -14 14 -20 46 -22 29 -2 42 -7 39 -15 -2 -7 -13 -38 -23 -70
l-18 -57 -35 6 c-20 3 -58 10 -86 15 -54 10 -423 58 -650 83 -411 47 -822 62
-1336 48 -459 -13 -617 -23 -854 -53 -203 -26 -529 -77 -575 -89 -61 -17 -105
-11 -211 29 -196 74 -196 74 -192 112 11 100 10 97 66 112 29 9 126 29 217 46
91 18 188 36 215 41 166 32 648 86 830 93 224 8 876 6 870 -3z m-2475 -44 c45
-21 75 -44 98 -74 17 -24 32 -47 32 -51 0 -4 -24 -14 -54 -21 -52 -12 -55 -12
-114 20 -64 34 -63 32 -77 128 l-7 43 29 -7 c15 -3 57 -21 93 -38z m4960 -16
c63 -12 160 -31 215 -42 55 -12 113 -23 128 -26 l29 -5 -7 -59 c-13 -108 -14
-111 -79 -127 -52 -12 -69 -12 -160 4 -55 9 -137 23 -181 30 -196 32 -394 66
-435 75 -25 5 -66 12 -92 15 -39 5 -48 10 -48 26 0 23 -9 23 225 -1 234 -24
225 -24 225 -1 0 17 -10 20 -77 26 -43 3 -85 7 -93 8 -8 2 4 13 26 26 23 13
52 40 65 61 l24 37 60 -13 c33 -7 112 -23 175 -34z m5683 -19 c71 -16 130 -31
133 -34 6 -6 -158 -64 -221 -77 -27 -6 -54 -15 -60 -20 -11 -9 -108 -40 -163
-53 -20 -5 -341 30 -350 38 -9 7 59 64 88 73 89 29 140 39 146 30 4 -6 9 -6
14 2 4 7 52 27 106 46 113 38 117 37 307 -5z m-10857 -15 c43 -29 52 -41 57
-73 14 -82 12 -88 -43 -102 -48 -12 -50 -12 -97 20 -75 52 -77 55 -62 91 16
38 66 98 83 98 6 0 34 -15 62 -34z m6579 -5 c72 -16 170 -37 219 -47 l88 -18
-43 -12 c-114 -32 -357 -86 -384 -86 -25 1 -189 29 -272 47 -18 4 -23 12 -23
35 0 16 6 32 13 37 16 11 227 71 252 72 11 1 79 -12 150 -28z m-6883 -14 c29
-26 38 -43 47 -89 5 -32 19 -75 31 -97 11 -22 20 -42 20 -44 0 -3 -20 -10 -44
-17 -51 -14 -43 -18 -159 85 -66 58 -68 60 -65 103 3 45 3 45 63 67 33 13 62
23 65 23 3 1 21 -13 42 -31z m7918 5 c130 -19 363 -42 427 -42 22 0 24 -3 21
-47 l-3 -48 -120 -18 c-95 -14 -133 -16 -180 -8 -284 49 -371 63 -440 76 -44
8 -113 20 -152 27 -40 6 -73 15 -73 19 0 8 105 25 140 22 21 -2 79 13 160 41
18 6 33 5 220 -22z m1770 -4 c0 -7 -3 -23 -6 -35 -6 -22 -11 -23 -104 -23
-171 0 -727 -29 -948 -50 -117 -11 -219 -20 -227 -20 -11 0 -15 12 -15 43 l0
42 292 -1 c297 -1 609 14 818 40 151 18 190 19 190 4z m414 -35 c-4 -21 -8
-39 -9 -41 -2 -2 -91 0 -199 4 l-196 7 0 27 c0 15 3 30 7 33 3 4 96 7 205 7
l199 0 -7 -37z m-10374 -48 c0 -26 40 -121 75 -179 19 -32 35 -60 35 -62 0 -2
-8 -4 -18 -4 -21 0 -222 214 -211 225 9 9 105 41 112 38 4 -2 7 -10 7 -18z
m7673 -10 c69 -13 195 -36 279 -50 84 -14 178 -31 208 -37 l55 -12 -75 -12
c-41 -7 -150 -26 -242 -43 -183 -33 -144 -34 -413 9 -106 17 -366 68 -371 72
-5 6 372 96 407 97 14 1 82 -10 152 -24z m2267 -22 c0 -16 -4 -33 -8 -39 -4
-6 -114 -21 -247 -34 -194 -19 -303 -23 -570 -23 -380 -1 -465 5 -465 33 0 14
10 20 43 24 109 15 346 35 632 55 66 4 231 9 368 10 l247 1 0 -27z m310 18
l85 -6 -65 -12 c-102 -19 -311 -45 -316 -41 -2 3 -1 19 2 36 l7 32 101 -1 c55
-1 139 -4 186 -8z m-3642 -18 l94 -17 -7 -45 c-12 -85 -3 -79 -165 -122 -37
-10 -63 -9 -145 5 -165 27 -255 45 -265 51 -15 9 7 45 28 45 9 0 94 23 187 50
94 27 172 49 174 49 3 1 47 -7 99 -16z m-1353 -28 c50 -8 169 -28 265 -44 96
-17 207 -35 245 -42 39 -6 77 -13 85 -16 26 -10 -460 -123 -526 -123 -50 0
-267 30 -276 39 -9 8 26 124 39 128 6 2 100 -5 209 -17 241 -24 224 -24 224 0
0 11 -6 20 -13 20 -25 0 -411 41 -414 44 -2 2 0 11 3 21 5 13 14 15 38 10 17
-3 72 -13 121 -20z m5540 1 c217 -26 229 -28 211 -38 -36 -20 -642 -136 -653
-124 -2 2 2 39 9 82 l13 78 50 12 c58 15 193 11 370 -10z m-9898 -18 c33 -14
53 -28 53 -38 0 -30 -30 -118 -48 -140 l-18 -22 -77 38 c-80 40 -84 44 -89
113 -3 32 -1 34 52 52 70 23 65 23 127 -3z m9453 -4 c0 -8 -5 -46 -11 -85
l-12 -69 -137 0 c-75 0 -165 3 -199 7 l-63 6 7 46 c4 25 8 47 9 49 2 1 56 9
122 18 65 8 153 21 194 28 41 8 78 14 83 15 4 0 7 -6 7 -15z m843 -34 c15 0
27 -4 27 -10 0 -5 -13 -10 -30 -10 -16 0 -30 -4 -30 -10 0 -5 11 -10 25 -10
27 0 31 -13 15 -54 -7 -20 -16 -26 -40 -26 -20 0 -30 -5 -30 -15 0 -9 10 -15
26 -15 39 0 19 -18 -38 -35 -47 -14 -65 -13 -207 5 -86 10 -217 25 -291 31
-74 6 -137 13 -139 15 -4 3 -12 2 209 44 91 17 226 46 300 65 74 18 144 31
155 29 11 -2 32 -4 48 -4z m-3991 -30 c84 -17 177 -33 206 -37 l53 -6 -7 -31
c-9 -43 -9 -43 -51 -49 -21 -4 -76 -16 -123 -27 -191 -47 -190 -47 -377 -12
-94 18 -180 32 -192 32 -20 0 -21 4 -15 38 4 20 9 39 11 42 11 13 253 78 295
79 25 0 115 -13 200 -29z m1313 -4 l110 -11 -4 -65 c-1 -36 -5 -69 -8 -74 -11
-17 -279 10 -588 59 -55 9 -124 18 -152 22 -29 3 -53 9 -53 13 0 4 21 10 48
14 26 3 134 21 241 39 160 28 204 32 245 24 28 -5 101 -14 161 -21z m1405 5
c0 -10 -3 -32 -6 -48 l-6 -30 -261 -7 c-354 -10 -715 -33 -956 -62 l-54 -7 6
62 c3 35 7 64 9 66 1 1 93 -1 203 -6 110 -5 279 -6 375 -3 173 5 661 42 669
50 10 10 21 2 21 -15z m-9279 -32 c22 -15 27 -30 38 -112 7 -53 11 -100 7
-105 -11 -18 -60 -20 -91 -5 -16 9 -66 41 -110 71 -158 110 -162 114 -107 127
22 5 40 -2 81 -30 88 -59 128 -38 49 25 l-42 34 54 17 c57 17 69 15 121 -22z
m2949 31 c80 -3 117 -7 84 -8 -69 -2 -73 -7 -74 -87 -1 -22 -9 -94 -18 -160
l-18 -120 -307 -3 -307 -2 0 22 c-2 93 -164 106 -253 20 l-27 -26 -188 22
c-268 32 -399 53 -617 102 -106 23 -294 73 -335 88 -23 8 -23 10 -5 15 68 21
561 88 855 117 229 23 919 35 1210 20z m-2423 -49 c54 -22 116 -46 138 -54
l39 -15 -44 -6 c-75 -12 -226 -45 -255 -56 -25 -10 -85 -5 -85 6 0 2 16 26 35
53 19 27 40 63 46 80 6 17 15 31 20 31 5 0 53 -18 106 -39z m3095 4 c237 -26
321 -37 443 -55 66 -10 157 -24 203 -30 86 -13 90 -17 73 -63 -6 -16 -20 -26
-38 -30 -26 -4 -314 -51 -393 -63 -161 -25 -469 -59 -475 -53 -2 3 2 34 9 69
8 36 17 104 21 153 4 48 10 87 15 87 4 0 68 -7 142 -15z m1737 3 c36 -6 70
-14 74 -18 4 -4 2 -39 -4 -77 l-12 -71 -65 -17 c-71 -17 -54 -19 -322 26 -63
10 -149 24 -190 30 l-75 12 50 12 c28 7 122 29 210 50 88 20 180 43 205 50 57
17 51 17 129 3z m262 -48 c66 -11 124 -20 127 -21 4 0 -13 -7 -38 -14 -39 -12
-263 -75 -266 -75 -2 0 18 116 22 129 2 7 11 10 19 7 9 -3 70 -15 136 -26z
m-5787 -112 c105 -71 106 -75 11 -57 -93 17 -265 107 -265 138 0 5 19 16 43
24 41 14 43 14 77 -12 19 -14 80 -56 134 -93z m7605 59 l294 -43 -114 -17
c-63 -10 -139 -22 -169 -27 -119 -21 -288 -52 -335 -61 -36 -7 -69 -6 -119 4
l-69 13 -39 63 c-21 35 -38 68 -38 75 0 21 136 46 220 41 41 -3 207 -24 369
-48z m-4001 16 l-3 -28 -227 -3 -228 -2 0 25 0 24 138 4 c75 1 179 4 230 5
l93 2 -3 -27z m5822 8 c0 -22 -22 -27 -165 -36 -55 -4 -116 -9 -135 -12 -60
-9 -906 -13 -885 -4 11 4 61 11 110 15 50 4 135 11 190 17 126 13 577 36 753
38 123 1 132 0 132 -18z m-3338 -26 l98 -17 -6 -42 c-4 -22 -10 -59 -13 -81
l-7 -40 -99 0 c-55 0 -145 8 -200 18 -55 9 -137 22 -183 29 -76 11 -82 13 -76
32 4 12 7 21 8 22 0 0 46 13 101 28 55 14 136 37 180 50 44 13 85 23 90 21 6
-1 54 -10 107 -20z m4038 5 c47 -5 153 -17 235 -26 83 -9 154 -20 159 -24 4
-5 -18 -13 -50 -20 -33 -7 -90 -20 -129 -30 -112 -30 -316 -69 -370 -71 -27
-2 -164 1 -303 6 l-253 8 6 28 c3 16 8 43 11 59 3 17 11 30 17 30 7 1 56 7
110 14 l97 12 0 -26 c0 -83 152 -83 195 0 8 16 15 37 15 46 0 14 10 16 88 10
48 -4 125 -11 172 -16z m-3170 -11 c0 -29 -24 -99 -34 -99 -20 0 -237 43 -233
46 3 3 243 61 260 63 4 1 7 -4 7 -10z m-5891 -28 c168 -51 314 -86 546 -131
99 -19 245 -40 386 -55 208 -22 195 -17 191 -70 -4 -42 -5 -44 -43 -50 -47 -8
-47 -30 -1 -30 25 0 32 -4 32 -20 0 -35 -12 -64 -23 -60 -7 3 -76 11 -155 19
-137 14 -145 16 -179 46 -34 30 -38 31 -97 25 -93 -9 -162 -8 -219 5 -296 67
-452 111 -659 184 -165 58 -232 85 -227 91 2 1 40 10 84 19 44 9 118 24 165
35 47 10 89 19 94 20 5 1 52 -12 105 -28z m-1334 -67 c55 -47 112 -93 128
-102 15 -9 27 -19 27 -22 0 -3 -28 -15 -62 -27 -35 -12 -71 -25 -80 -28 -13
-5 -47 22 -133 106 l-116 113 58 23 c32 12 63 22 68 22 6 1 55 -37 110 -85z
m6664 45 c58 -11 106 -21 108 -23 2 -1 -36 -13 -84 -25 -49 -13 -119 -32 -156
-43 -37 -11 -69 -19 -71 -17 -2 2 1 35 7 72 l10 68 41 -6 c23 -4 88 -15 145
-26z m-1399 -13 c85 -13 194 -30 243 -37 48 -7 87 -16 87 -19 0 -3 -46 -16
-102 -29 -57 -13 -130 -30 -163 -37 -62 -15 -384 -81 -515 -107 -41 -8 -77
-13 -79 -11 -6 5 51 197 61 209 11 12 265 62 293 58 11 -2 90 -14 175 -27z
m4415 -8 c-3 -24 -8 -50 -11 -59 -4 -14 -42 -17 -302 -22 -163 -4 -344 -11
-402 -17 -58 -5 -159 -14 -225 -20 -66 -5 -164 -14 -219 -20 -54 -6 -100 -10
-101 -8 -1 2 0 38 3 81 l5 78 141 -8 c251 -14 729 -2 999 27 129 13 120 16
112 -32z m-1297 16 c19 -5 22 -13 22 -51 0 -39 -2 -44 -17 -38 -39 17 -76 17
-118 0 -40 -15 -87 -57 -97 -85 -2 -7 -92 1 -276 25 -150 19 -279 35 -287 35
-33 0 -12 18 28 23 23 3 150 24 282 46 132 22 254 42 270 44 50 7 168 7 193 1z
m2543 -95 l-25 -91 -51 5 c-27 3 -120 15 -205 26 -85 11 -175 22 -200 23 -52
4 -54 4 125 42 66 15 165 39 220 55 55 16 114 29 131 30 l31 1 -26 -91z m308
34 l75 -16 -60 -30 c-63 -32 -160 -73 -209 -88 -16 -5 -51 -6 -76 -3 l-47 6
25 82 c13 44 26 86 28 92 3 10 71 -1 264 -43z m-4205 2 c83 -14 152 -27 154
-30 2 -2 0 -21 -5 -42 -8 -33 -13 -38 -48 -46 -22 -5 -75 -17 -117 -28 -92
-23 -144 -24 -241 -5 -40 8 -125 22 -189 32 -112 16 -149 27 -137 38 6 6 302
93 356 104 21 5 47 7 58 5 11 -2 87 -14 169 -28z m-6038 -30 c228 -91 531
-179 799 -232 50 -9 91 -18 92 -18 3 -2 -87 -228 -93 -234 -4 -4 -135 23 -199
40 -33 9 -33 10 -18 40 13 27 13 32 -2 55 -42 64 -159 59 -216 -10 -15 -18
-18 -18 -130 19 -170 56 -346 127 -512 207 -136 66 -148 74 -145 97 2 18 11
27 33 33 159 45 204 57 226 57 14 1 88 -24 165 -54z m3739 -52 c-16 -54 -32
-103 -37 -110 -10 -12 -55 -21 -278 -53 -132 -20 -196 -28 -478 -61 -51 -6
-95 -9 -98 -6 -9 9 20 190 32 202 7 6 50 15 96 18 113 9 494 62 653 90 72 13
132 22 134 21 2 -2 -9 -48 -24 -101z m-879 50 c-3 -25 -7 -47 -9 -49 -2 -2
-233 -19 -381 -28 l-78 -5 4 50 c3 27 7 51 9 54 2 2 103 8 224 13 121 5 224
10 229 10 5 1 6 -19 2 -45z m1901 6 c43 -6 79 -12 81 -14 3 -3 -28 -188 -33
-193 -3 -3 -232 -63 -305 -80 -25 -5 -104 -24 -176 -40 -203 -48 -510 -108
-719 -142 -104 -16 -217 -35 -250 -40 -33 -6 -96 -14 -140 -20 l-80 -9 -42 44
c-24 24 -43 53 -43 64 0 12 -6 21 -13 21 -9 0 -12 -18 -9 -69 l4 -70 -33 -5
c-19 -3 -86 -10 -149 -16 -63 -5 -149 -12 -190 -16 -41 -3 -139 -9 -218 -13
-124 -5 -141 -4 -135 9 3 8 14 64 22 125 l16 109 35 7 c19 4 76 9 125 10 85 2
90 1 93 -20 2 -12 16 -28 32 -36 59 -31 136 -12 184 46 28 33 31 34 140 45
152 15 412 50 586 78 80 13 146 23 148 21 1 -1 -7 -31 -18 -66 -11 -36 -15
-65 -10 -67 5 -2 13 -4 16 -5 4 -1 17 32 29 73 l22 74 169 33 c200 39 483 101
644 142 139 35 122 33 217 20z m203 -33 c47 -8 120 -20 163 -26 78 -13 79 -13
59 -32 -11 -11 -50 -29 -88 -40 -195 -56 -246 -69 -251 -64 -7 7 18 176 26
176 3 -1 44 -7 91 -14z m3572 -16 c-23 -11 -47 -30 -53 -44 -10 -22 -19 -25
-93 -30 -152 -11 -256 -11 -260 -1 -3 6 -9 4 -14 -4 -8 -12 -58 -13 -305 -6
-304 7 -424 16 -377 28 96 24 760 71 1055 75 l90 1 -43 -19z m467 10 c133 -1
98 -14 -89 -34 -85 -9 -172 -19 -192 -22 -37 -6 -38 -5 -38 23 0 17 3 33 8 38
4 4 54 5 111 1 57 -3 147 -6 200 -6z m-9478 -87 c9 -40 20 -95 24 -123 l7 -51
-49 27 c-26 15 -84 50 -128 79 -44 29 -91 58 -103 64 -30 16 -26 19 39 37 30
9 74 22 99 29 83 25 92 20 111 -62z m7042 67 c40 -6 117 -17 172 -25 170 -25
254 -35 292 -35 51 0 35 -10 -33 -20 -58 -9 -318 -55 -464 -83 -41 -8 -92 -12
-113 -10 -37 5 -38 6 -30 37 4 17 8 54 8 81 0 69 21 76 168 55z m2912 -15
c178 -18 296 -33 363 -46 40 -8 52 -15 52 -29 0 -22 -14 -26 -192 -70 -139
-34 -155 -37 -373 -73 -316 -53 -895 -107 -1134 -107 l-61 0 0 109 0 109 29 5
c16 3 91 9 168 13 124 6 142 5 166 -11 34 -22 103 -16 144 12 18 13 53 23 98
27 105 10 454 56 500 65 58 13 85 12 240 -4z m-6637 -67 c-15 -107 -16 -110
-38 -98 -48 26 -141 3 -178 -44 -20 -26 -25 -27 -148 -33 l-126 -6 6 29 c3 16
11 62 16 103 6 41 11 76 13 77 1 0 92 7 202 13 110 7 202 15 204 17 2 2 16 4
31 4 l27 0 -9 -62z m-3144 -12 c173 -84 318 -143 486 -199 85 -28 156 -52 158
-53 4 -3 -68 -177 -77 -187 -15 -15 -300 95 -578 224 -62 28 -73 37 -73 59 0
14 -9 67 -19 118 -10 50 -16 92 -13 92 2 0 54 -24 116 -54z m2666 34 c-1 -28
-30 -194 -35 -199 -4 -3 -118 -7 -254 -9 -212 -3 -250 -1 -263 12 -13 13 -40
14 -177 9 l-162 -6 3 44 3 44 120 8 c199 13 225 17 225 34 0 13 -12 14 -77 9
-74 -6 -77 -6 -51 9 15 8 32 23 37 33 8 16 35 17 320 17 171 0 311 -2 311 -5z
m-3012 -86 c45 -29 112 -70 148 -91 l66 -38 -5 -72 c-8 -113 -6 -112 -133 -36
-82 49 -116 75 -129 100 -21 38 -89 83 -124 83 -29 0 -129 78 -110 85 129 48
154 53 179 37 14 -9 62 -40 108 -68z m6304 56 c76 -13 136 -25 134 -27 -2 -2
-75 -24 -162 -47 -88 -24 -184 -51 -214 -61 -30 -9 -75 -23 -100 -30 -25 -7
-99 -29 -165 -48 -193 -56 -347 -98 -350 -95 -3 3 32 203 38 222 2 5 25 15 52
22 28 7 98 27 158 43 l107 29 0 -28 c0 -46 49 -80 116 -80 86 0 174 57 174
112 0 24 6 23 212 -12z m1558 -11 c24 -19 36 -21 77 -14 61 10 186 10 541 0
l282 -8 0 -109 0 -108 -47 0 c-92 0 -589 30 -673 40 -168 21 -507 61 -585 70
-44 5 -105 14 -135 19 -30 6 -73 13 -95 17 -38 7 -35 8 55 25 77 15 240 42
480 82 53 9 72 6 100 -14z m-1206 -49 c65 -11 121 -22 124 -25 3 -3 0 -22 -6
-42 l-11 -38 -138 -33 c-146 -35 -464 -123 -623 -172 -119 -36 -401 -118 -449
-129 -20 -5 -117 -30 -216 -56 -99 -25 -207 -52 -240 -59 -33 -8 -132 -30
-220 -49 -359 -81 -853 -166 -1115 -192 l-65 -7 3 96 3 95 42 5 c101 12 106
12 112 -2 10 -27 5 -103 -9 -137 -8 -19 -11 -35 -7 -35 17 0 36 67 36 128 0
70 -4 67 90 77 33 3 96 12 140 20 44 7 127 21 185 30 172 28 659 126 806 163
57 15 75 16 88 6 56 -40 171 -18 228 44 32 34 47 41 144 66 60 16 244 69 409
117 165 49 325 96 355 104 30 8 78 21 105 29 68 19 91 19 229 -4z m-1204 -47
c0 -32 -22 -143 -29 -143 -3 0 -15 7 -25 15 -31 24 -105 18 -164 -11 -56 -28
-72 -49 -81 -103 -7 -40 6 -35 -221 -85 -356 -79 -818 -163 -1000 -182 l-65
-6 0 64 c0 53 -5 72 -27 106 l-27 41 27 5 c15 2 54 8 87 11 33 3 85 10 115 16
30 5 111 18 180 29 117 19 251 43 415 74 143 27 455 98 620 140 200 51 195 51
195 29z m-3585 -48 c138 -12 155 -16 155 -36 0 -15 5 -17 30 -12 28 5 30 3 30
-23 0 -64 -23 -204 -34 -204 -28 0 -341 41 -421 55 -49 9 -106 19 -126 22
l-37 5 36 88 36 87 34 -24 c21 -13 50 -23 71 -23 44 0 103 29 116 58 5 12 16
20 25 18 8 -3 47 -7 85 -11z m835 -45 l276 0 -10 -74 -9 -73 -38 15 c-33 12
-45 13 -84 2 -60 -17 -105 -61 -105 -102 l0 -31 -227 7 c-210 6 -410 20 -418
28 -2 2 3 51 10 108 8 58 15 108 15 112 0 11 86 16 205 12 61 -2 234 -4 385
-4z m-2121 -156 c53 -20 110 -43 126 -50 17 -7 66 -24 110 -39 44 -15 81 -28
83 -30 2 -2 -10 -32 -27 -67 -17 -34 -31 -71 -31 -80 0 -10 -4 -18 -10 -18
-33 0 -360 135 -507 209 -78 39 -82 42 -73 65 5 14 10 51 11 83 1 32 3 61 5
64 1 3 51 -18 110 -47 59 -29 150 -69 203 -90z m-488 25 c46 -28 85 -52 86
-53 1 -1 -9 -19 -22 -39 -66 -96 -246 -135 -338 -73 -51 35 -47 52 13 58 38 4
59 12 82 34 34 33 58 81 58 119 0 30 -5 32 121 -46z m942 34 c15 -14 38 -18
101 -19 66 0 279 -37 295 -50 4 -4 -68 -184 -78 -196 -11 -13 -425 97 -419
112 2 3 18 43 37 88 18 45 36 82 39 82 3 0 14 -8 25 -17z m567 -99 c122 -21
379 -54 419 -54 l34 0 -7 -62 c-17 -162 -16 -158 -45 -158 -34 0 -302 36 -406
54 -200 35 -225 41 -221 51 2 5 21 52 41 103 l38 94 31 -7 c17 -3 69 -13 116
-21z m2078 -141 l-3 -107 -40 -7 c-46 -8 -263 -27 -450 -39 -184 -13 -769 -12
-965 1 -91 6 -166 11 -167 12 -1 2 22 194 26 216 1 2 43 0 94 -4 89 -7 544
-25 657 -26 65 -1 581 36 695 49 44 5 97 10 118 11 l38 1 -3 -107z m-2648 24
c47 -14 136 -37 198 -52 104 -26 130 -39 100 -50 -11 -4 -417 80 -424 88 -7 8
18 48 29 44 6 -2 50 -16 97 -30z m423 -101 c134 -27 242 -45 372 -61 198 -24
195 -23 195 -45 0 -27 20 -25 27 1 5 18 11 20 42 15 95 -15 558 -28 786 -22
301 8 680 34 778 52 l27 6 -1 -76 -1 -75 -47 6 c-52 6 -94 -10 -133 -51 -21
-22 -35 -25 -193 -36 -408 -28 -936 -24 -1300 11 -219 21 -688 99 -708 118 -4
4 1 27 12 52 10 24 26 61 35 82 17 42 14 42 109 23z m-360 -56 c108 -25 197
-48 197 -51 0 -3 -6 -13 -12 -22 -12 -15 -21 -15 -123 8 -172 37 -305 82 -298
101 7 18 -12 21 236 -36z"/>
</g>
</svg>
