<?xml version="1.0" standalone="no"?>
<!DOCTYPE svg PUBLIC "-//W3C//DTD SVG 20010904//EN"
 "http://www.w3.org/TR/2001/REC-SVG-20010904/DTD/svg10.dtd">
<svg version="1.0" xmlns="http://www.w3.org/2000/svg"
 width="1800.000000pt" height="1800.000000pt" viewBox="0 0 3500.000000 3500.000000"
 preserveAspectRatio="xMidYMid meet">
<metadata>
Created by potrace 1.16, written by Peter Selinger 2001-2019
</metadata>
<g transform="translate(1250,2350) scale(0.1,-0.1)"
fill="#000000" stroke="none">
<path d="M5911 11548 c-6 -29 -43 -217 -81 -418 -97 -504 -90 -473 -103 -462
-7 6 -30 15 -51 21 -98 26 -221 -46 -214 -126 6 -77 114 -108 208 -60 24 12
52 33 61 47 11 16 45 165 94 420 41 217 80 419 86 449 l11 54 280 -6 c154 -3
282 -8 285 -10 2 -3 -17 -113 -43 -246 -45 -234 -47 -241 -65 -225 -24 22
-107 30 -153 14 -20 -6 -52 -26 -71 -45 -28 -25 -35 -40 -35 -69 0 -74 77
-110 174 -82 80 24 108 61 130 172 9 49 40 203 67 343 28 139 48 255 46 257
-4 4 -472 23 -569 24 l-47 0 -10 -52z"/>
<path d="M7415 11106 l6 -74 -30 -10 c-17 -6 -32 -8 -35 -4 -2 4 -7 35 -11 70
-5 46 -11 62 -22 62 -13 0 -14 -11 -8 -74 6 -69 5 -75 -14 -81 -17 -5 -21 -15
-21 -45 0 -39 1 -39 30 -33 29 5 30 5 32 -36 0 -22 1 -47 2 -53 1 -7 -9 -14
-22 -16 -20 -3 -23 -8 -20 -40 3 -33 6 -37 30 -35 26 2 27 0 34 -68 5 -56 10
-69 23 -67 12 3 15 13 12 48 -9 98 -8 103 23 111 17 5 31 7 33 5 2 -1 6 -30 9
-64 6 -52 10 -62 26 -62 14 0 17 6 14 23 -3 12 -8 43 -11 70 -6 44 -5 48 20
57 19 7 25 15 21 26 -3 9 -6 25 -6 36 0 16 -5 19 -24 14 -26 -6 -36 12 -36 70
0 25 5 33 23 38 20 5 22 10 19 42 -4 32 -7 35 -29 31 -28 -5 -29 -3 -38 76 -5
42 -10 57 -22 57 -13 0 -14 -11 -8 -74z"/>
<path d="M3565 10614 c-94 -80 -176 -152 -184 -159 -11 -11 -12 -19 -2 -43 7
-17 21 -38 30 -49 14 -15 361 -570 361 -577 0 -1 -9 -2 -21 -3 -61 -5 -111
-74 -107 -148 3 -42 7 -52 31 -65 25 -14 30 -13 64 5 52 28 83 77 83 133 0 25
-6 53 -14 61 -12 15 -286 459 -286 465 0 1 75 69 166 151 137 122 168 145 179
134 15 -17 137 -221 133 -223 -58 -25 -86 -49 -107 -90 -29 -58 -22 -112 19
-135 23 -12 30 -12 63 4 45 21 87 87 87 134 0 24 -24 73 -87 175 -48 77 -93
155 -102 171 -8 17 -39 65 -68 108 -29 43 -53 82 -53 87 0 6 -3 10 -8 10 -4 0
-84 -66 -177 -146z m226 25 c8 -17 8 -24 -3 -34 -7 -6 -82 -72 -166 -144 -126
-109 -156 -130 -168 -121 -7 7 -14 16 -14 21 0 9 321 298 332 299 4 0 12 -10
19 -21z"/>
<path d="M4757 10703 c-2 -5 45 -143 105 -308 60 -165 111 -309 114 -321 5
-18 1 -21 -31 -22 -149 -6 -226 -250 -80 -252 73 0 165 89 165 159 0 22 -30
122 -69 232 -39 106 -69 194 -68 195 7 7 158 -31 190 -48 52 -26 87 -100 87
-181 0 -36 4 -56 10 -52 29 18 -1 177 -41 221 -11 12 -22 34 -25 50 -17 108
-71 167 -217 239 -66 32 -105 58 -112 73 -10 22 -20 28 -28 15z m158 -155 c73
-24 145 -79 165 -128 7 -17 11 -32 9 -35 -2 -2 -49 18 -104 45 -95 47 -155 96
-155 127 0 17 9 17 85 -9z"/>
<path d="M8315 10666 c-17 -7 -48 -36 -70 -65 -21 -28 -41 -51 -43 -51 -1 0
-21 10 -43 23 -34 19 -41 20 -49 7 -7 -11 -5 -18 6 -25 61 -38 61 -38 20 -88
l-38 -46 -39 20 c-22 11 -44 17 -49 14 -20 -12 -9 -32 26 -48 l36 -18 -38 -47
c-52 -64 -253 -309 -332 -405 -44 -53 -62 -83 -58 -94 8 -21 -11 -43 236 262
112 138 207 254 211 259 6 7 87 -34 347 -177 45 -25 53 -26 58 -12 4 9 3 19
-1 23 -3 4 -86 50 -183 104 -97 53 -178 100 -179 105 -1 4 14 27 35 51 l37 43
115 -62 c63 -35 149 -82 190 -105 54 -30 79 -39 88 -32 6 6 12 14 12 17 0 4
-37 27 -82 51 l-83 45 51 6 c87 11 124 44 124 111 0 46 -46 102 -105 129 -48
22 -155 25 -200 5z"/>
<path d="M2102 10368 c-7 -7 -12 -40 -12 -78 0 -129 61 -247 193 -372 l81 -77
-12 -114 c-15 -141 -15 -207 -1 -283 27 -147 129 -261 278 -309 40 -13 74 -16
135 -13 99 6 158 31 224 92 l48 45 55 -40 c76 -57 136 -117 154 -155 19 -40
19 -107 1 -143 -24 -45 -83 -91 -116 -91 -35 0 -36 4 -10 37 51 65 -1 163 -85
163 -81 0 -131 -91 -91 -168 42 -81 132 -105 223 -59 114 58 161 170 114 273
-16 36 -51 70 -190 191 l-33 29 17 49 c66 186 -56 369 -245 369 -66 0 -114
-17 -155 -55 -20 -18 -22 -17 -93 43 l-72 60 6 62 c4 43 1 90 -10 146 -29 142
-95 247 -205 329 -101 75 -169 99 -199 69z m208 -118 c54 -54 87 -182 76 -293
-4 -38 -12 -67 -19 -67 -19 0 -93 88 -127 151 -41 78 -53 178 -25 209 23 26
69 26 95 0z m293 -611 c20 -17 21 -18 4 -87 -14 -58 -15 -80 -6 -122 13 -62
56 -115 114 -141 57 -26 165 -25 165 2 0 5 -24 9 -54 9 -67 0 -110 31 -126 90
-10 38 2 124 19 135 8 4 274 -221 280 -237 5 -16 -50 -68 -101 -94 -72 -37
-137 -48 -202 -34 -140 29 -218 150 -219 340 -1 47 5 115 12 152 l13 68 40
-33 c22 -17 50 -39 61 -48z m348 -64 c67 -35 108 -125 93 -203 -5 -24 -13 -43
-19 -42 -17 3 -273 224 -268 232 2 4 25 14 51 22 50 16 100 13 143 -9z"/>
<path d="M9013 10040 c6 -39 8 -72 6 -74 -2 -2 -18 -7 -35 -10 l-32 -7 -7 63
c-8 72 -11 79 -28 72 -10 -3 -11 -18 -6 -57 12 -86 11 -94 -14 -101 -20 -5
-22 -10 -19 -41 4 -32 7 -36 27 -31 25 6 35 -13 35 -71 0 -23 -5 -33 -20 -38
-16 -5 -20 -15 -20 -46 0 -39 1 -40 29 -34 l29 6 7 -65 c5 -50 10 -66 22 -66
13 0 14 11 8 74 -6 71 -6 73 17 80 42 11 46 7 53 -59 5 -49 10 -65 22 -65 13
0 15 11 9 74 -6 68 -5 74 14 79 16 4 20 13 20 46 0 39 -1 41 -25 35 -25 -6
-27 -3 -38 69 -3 22 0 28 19 33 20 5 24 12 24 46 0 38 -1 39 -29 33 l-29 -6
-7 65 c-5 53 -10 66 -24 66 -15 0 -16 -7 -8 -70z"/>
<path d="M10319 9237 c-84 -227 -155 -414 -157 -417 -2 -3 -8 3 -14 14 -15 28
-87 56 -144 56 -113 0 -204 -62 -204 -139 0 -52 29 -86 91 -106 97 -32 226 5
265 75 7 14 53 132 101 262 48 131 91 238 94 238 16 0 140 -179 150 -215 21
-76 -6 -164 -78 -252 -48 -60 -25 -54 31 7 49 56 86 140 86 199 0 23 12 60 31
95 24 44 33 75 37 127 6 87 -8 141 -66 259 -37 76 -46 106 -47 147 0 29 -5 55
-11 57 -7 3 -72 -159 -165 -407z m169 150 c62 -91 85 -159 79 -232 -5 -69 -27
-134 -34 -100 -3 11 -28 70 -56 130 -40 86 -52 123 -55 172 -4 63 1 93 15 93
5 0 27 -28 51 -63z"/>
<path d="M9053 9318 l-261 -263 -16 28 c-18 32 -86 66 -132 67 -17 0 -43 -9
-58 -21 -66 -52 5 -149 111 -149 l47 0 261 260 260 260 182 -128 182 -127
-132 -136 c-73 -75 -135 -137 -139 -138 -5 0 -8 5 -8 13 0 21 -55 64 -96 75
-64 18 -117 -4 -129 -51 -5 -21 0 -34 28 -64 31 -34 40 -38 96 -42 l62 -5 200
199 c109 109 198 202 197 206 -3 8 -365 267 -382 274 -6 2 -129 -114 -273
-258z"/>
<path d="M1516 9424 c-4 -10 111 -107 366 -311 305 -244 367 -298 351 -304
-36 -13 -91 -88 -103 -141 -15 -59 -8 -143 14 -187 35 -66 121 -78 179 -24 66
63 93 211 51 283 -11 20 -112 109 -234 207 -118 95 -216 176 -217 181 -2 4 48
24 110 45 144 48 201 49 274 7 55 -31 120 -104 142 -159 8 -17 17 -28 22 -25
12 7 -13 65 -51 118 -35 49 -108 106 -160 126 -19 7 -62 39 -95 70 -41 39 -79
64 -120 79 -54 21 -71 22 -180 17 -66 -3 -149 -8 -185 -12 -57 -5 -71 -2 -112
19 -38 21 -47 23 -52 11z m569 -92 c11 -5 37 -23 57 -40 l37 -29 -92 -7 c-259
-19 -249 -19 -309 4 -32 12 -60 25 -63 30 -7 11 114 51 179 59 60 7 163 -1
191 -17z"/>
<path d="M1331 8097 c-6 -35 -11 -73 -11 -85 0 -33 -13 -26 -35 21 -26 54 -79
91 -120 83 -66 -14 -105 -80 -105 -178 1 -111 41 -170 144 -208 l58 -22 -6
-49 c-6 -45 -5 -49 14 -49 15 0 21 9 26 40 7 44 2 43 84 15 34 -12 35 -14 35
-61 0 -38 4 -49 18 -52 13 -3 17 3 17 25 0 61 -3 62 330 -62 173 -63 320 -113
327 -111 15 6 18 26 3 26 -11 0 -632 230 -639 236 -4 4 54 377 65 415 4 15
-23 36 -33 26 -2 -2 -20 -98 -39 -213 -20 -115 -37 -210 -38 -211 -2 -3 -109
37 -114 42 -2 1 13 95 32 209 20 113 36 210 36 216 0 5 -9 10 -19 10 -15 0
-21 -12 -30 -63z"/>
<path d="M9790 7683 c-17 -22 -21 -37 -17 -70 5 -49 46 -109 83 -123 15 -6
112 -6 247 0 122 5 252 10 288 10 l66 0 47 -216 c26 -119 46 -217 44 -219 -2
-1 -65 -6 -140 -10 l-137 -7 6 35 c12 79 -50 167 -118 167 -40 0 -54 -11 -64
-53 -10 -39 19 -110 58 -143 l32 -27 195 7 c187 6 423 17 427 20 3 3 -95 477
-100 483 -3 3 -66 0 -139 -6 -73 -6 -232 -13 -353 -16 -121 -3 -230 -8 -241
-10 -20 -4 -21 0 -21 48 1 61 -23 109 -69 138 -43 26 -69 24 -94 -8z m825
-195 c3 -13 25 -111 48 -220 l43 -196 -28 -4 c-15 -3 -28 -3 -28 -2 0 5 -79
397 -85 422 -4 18 -1 22 20 22 17 0 26 -7 30 -22z"/>
<path d="M1010 7425 c-30 -9 -104 -41 -164 -71 -105 -54 -113 -56 -173 -52
-46 3 -64 0 -68 -9 -2 -8 1 -16 8 -18 32 -12 788 -269 832 -283 63 -20 61 -18
42 -40 -70 -78 -58 -241 24 -323 l39 -39 -775 0 c-768 0 -775 0 -775 -20 0
-20 7 -20 5984 -20 3291 0 5991 3 6000 6 9 3 16 12 16 20 0 12 -759 14 -5181
14 l-5181 0 30 29 c28 29 52 94 52 144 0 52 -32 132 -69 167 -31 32 -68 47
-281 120 -135 46 -255 87 -268 92 -23 8 -22 9 25 48 92 76 168 127 207 140 75
24 186 -10 274 -85 49 -43 57 -27 10 17 -71 66 -166 108 -246 108 -30 0 -66
10 -108 31 -77 38 -170 47 -254 24z m225 -42 l49 -16 -34 -15 c-19 -9 -78 -37
-131 -63 -104 -52 -195 -74 -254 -61 l-38 7 44 36 c78 62 109 81 177 105 80
28 122 30 187 7z"/>
<path d="M0 6340 c0 -20 7 -20 5984 -20 3291 0 5991 3 6000 6 9 3 16 12 16 20
0 12 -878 14 -6000 14 -5993 0 -6000 0 -6000 -20z"/>
<path d="M0 6110 c0 -20 5 -20 5997 -18 5703 3 5998 4 6001 21 3 16 -288 17
-5997 17 -5995 0 -6001 0 -6001 -20z"/>
<path d="M0 5880 c0 -20 7 -20 6000 -20 5993 0 6000 0 6000 20 0 20 -7 20
-6000 20 -5993 0 -6000 0 -6000 -20z"/>
<path d="M0 5650 c0 -20 7 -20 6000 -20 5993 0 6000 0 6000 20 0 20 -7 20
-6000 20 -5993 0 -6000 0 -6000 -20z"/>
<path d="M10750 5450 c0 -7 -1798 -10 -5375 -10 -5368 0 -5375 0 -5375 -20 0
-20 7 -20 5324 -20 l5325 0 6 -54 c8 -58 3 -76 -21 -76 -10 0 -14 -12 -14 -41
0 -40 0 -40 30 -34 29 6 30 5 30 -28 0 -20 3 -42 6 -51 4 -11 -2 -19 -20 -26
-42 -16 -31 -89 12 -78 19 5 22 0 28 -63 6 -59 9 -69 26 -69 16 0 19 5 14 28
-2 15 -7 48 -11 73 -6 46 -5 47 26 58 18 6 33 11 35 11 1 0 6 -29 9 -65 6 -55
10 -65 26 -65 15 0 18 5 15 23 -3 12 -8 43 -11 69 -6 45 -5 48 20 54 21 5 25
11 21 28 -3 11 -6 29 -6 40 0 14 -5 17 -24 12 -20 -5 -24 -1 -30 25 -11 58 -7
76 17 83 20 5 22 10 19 41 -4 32 -7 36 -31 33 -24 -3 -26 1 -29 35 l-3 37 605
0 c599 0 606 0 606 20 0 20 -7 20 -610 20 -400 0 -610 3 -610 10 0 6 -7 10
-15 10 -8 0 -15 -4 -15 -10z"/>
<path d="M10041 4911 c-12 -38 -21 -74 -21 -80 0 -23 -18 -10 -23 18 -8 37
-49 85 -86 101 -71 29 -161 -72 -161 -179 0 -105 37 -164 127 -205 48 -23 55
-29 49 -48 -19 -68 -19 -78 2 -78 15 0 22 9 27 33 12 53 5 53 123 -9 2 -1 -2
-21 -9 -44 -11 -35 -10 -43 2 -51 23 -14 27 -11 34 31 4 22 9 40 13 40 3 0
142 -70 310 -156 224 -114 307 -152 313 -143 10 16 3 20 -331 188 -146 73
-269 137 -274 141 -6 6 83 340 111 416 4 11 -25 29 -33 21 -2 -2 -22 -66 -45
-143 -22 -76 -49 -169 -60 -206 l-20 -67 -54 26 c-30 15 -55 31 -55 35 0 4 27
99 60 211 33 112 60 207 60 210 0 4 -9 7 -19 7 -15 0 -24 -15 -40 -69z"/>
<path d="M2210 4675 c-173 -106 -316 -191 -317 -187 -1 4 -4 19 -7 34 -4 15
-21 44 -39 64 -92 106 -254 96 -251 -16 3 -116 177 -202 274 -136 26 17 304
188 362 222 12 8 -3 -191 -18 -234 -19 -52 -78 -96 -160 -117 -68 -17 -79 -25
-37 -25 59 0 134 33 187 80 28 26 71 56 96 67 93 42 145 122 179 275 19 89 30
117 55 138 19 15 21 30 4 30 -7 0 -155 -88 -328 -195z m200 -1 c-9 -95 -42
-170 -93 -208 -19 -14 -38 -26 -44 -26 -5 0 -2 25 8 58 10 31 25 87 34 124 17
67 79 159 95 141 4 -4 4 -44 0 -89z"/>
<path d="M9855 3899 c-88 -29 -150 -34 -197 -14 -12 5 -18 3 -18 -6 1 -8 83
-59 183 -113 100 -55 250 -137 333 -183 l152 -83 -28 -29 c-27 -27 -50 -84
-50 -127 0 -44 31 -123 57 -143 28 -23 73 -27 104 -11 51 28 77 158 45 234
-18 44 -35 56 -250 171 -165 89 -205 115 -178 115 5 0 44 20 87 45 135 77 212
69 313 -30 60 -60 70 -50 15 15 -36 42 -138 100 -177 100 -10 0 -35 14 -56 30
-86 68 -191 77 -335 29z m295 -31 l45 -21 -40 -9 c-22 -6 -75 -21 -118 -34
-85 -26 -156 -30 -201 -11 l-29 13 60 32 c105 56 206 67 283 30z"/>
<path d="M9090 3897 c8 -8 110 -74 225 -147 116 -74 212 -136 215 -138 3 -2
-3 -8 -13 -13 -48 -27 -64 -144 -26 -193 61 -77 164 34 129 140 -13 39 -22 45
-323 238 -177 113 -250 152 -207 113z"/>
<path d="M1741 3676 c-11 -13 7 -40 111 -173 67 -87 126 -159 130 -161 18 -8
5 -23 -42 -47 -27 -14 -53 -25 -57 -25 -4 0 -66 77 -138 170 -71 93 -132 169
-135 169 -3 1 -12 -3 -20 -8 -11 -8 -5 -22 35 -73 27 -35 53 -69 59 -77 9 -12
8 -12 -9 -4 -59 30 -131 24 -170 -15 -48 -48 -25 -145 50 -210 80 -71 162 -81
251 -31 l55 32 30 -36 c18 -22 35 -34 44 -30 21 7 19 17 -11 52 l-25 31 56 27
57 28 27 -33 c19 -22 33 -31 44 -26 22 8 22 9 -8 48 l-25 33 297 153 c164 84
302 156 307 160 4 5 5 13 1 20 -6 10 -305 -137 -552 -272 l-71 -39 -128 163
c-162 207 -148 192 -163 174z"/>
<path d="M3480 3337 c-71 -52 -714 -489 -727 -494 -8 -3 -13 2 -13 12 0 31
-41 85 -83 109 -52 30 -96 38 -137 26 -123 -35 -42 -209 106 -226 48 -6 51 -4
159 69 61 42 234 159 386 262 l275 186 166 -168 c171 -174 233 -242 227 -247
-2 -1 -95 -64 -206 -139 -175 -118 -203 -134 -203 -115 0 30 -36 80 -78 108
-23 16 -53 25 -92 28 -53 4 -61 2 -86 -23 -22 -23 -26 -32 -21 -67 13 -94 154
-170 235 -125 12 6 111 73 220 147 108 74 232 157 274 185 43 27 78 53 78 56
0 10 -411 444 -423 446 -7 2 -32 -12 -57 -30z"/>
<path d="M8920 3039 c-58 -49 -126 -106 -152 -127 -26 -20 -47 -41 -48 -46 0
-6 72 -131 161 -279 88 -148 159 -270 157 -271 -1 -1 -16 -6 -33 -12 -86 -28
-102 -174 -18 -174 35 0 90 57 98 102 6 34 -4 55 -153 303 l-160 267 141 123
c106 92 145 120 153 112 14 -15 166 -269 162 -271 -2 -1 -16 -6 -33 -12 -57
-18 -99 -126 -63 -162 24 -24 69 -14 104 24 57 60 51 87 -64 282 -55 92 -107
182 -118 200 -10 17 -21 32 -24 31 -3 0 -52 -41 -110 -90z"/>
<path d="M6755 2624 c-132 -35 -241 -64 -242 -64 -7 0 -2 -74 7 -112 5 -24 21
-167 35 -318 14 -151 28 -291 31 -311 l5 -37 -50 0 c-85 0 -151 -57 -151 -131
0 -87 136 -79 204 12 24 33 24 27 -8 359 -15 141 -26 262 -26 267 0 6 30 19
68 30 200 57 359 101 368 101 7 0 16 -51 23 -127 15 -173 18 -159 -31 -155
-53 4 -104 -22 -135 -68 -45 -65 -17 -120 61 -120 51 0 101 30 129 78 19 32
19 37 3 190 -9 87 -16 183 -16 215 0 31 -4 76 -10 99 -5 24 -13 68 -17 99 l-8
56 -240 -63z m235 -72 l0 -29 -216 -57 c-119 -31 -218 -55 -219 -54 -1 2 -5
12 -9 24 -6 19 9 24 206 81 117 33 219 61 226 62 7 1 12 -11 12 -27z"/>
<path d="M8145 2610 c-3 -5 6 -37 21 -72 38 -93 228 -541 295 -701 33 -76 59
-141 59 -143 0 -2 -16 -4 -35 -4 -116 0 -235 -131 -235 -258 0 -46 4 -58 29
-83 56 -56 170 -32 244 51 75 82 94 163 58 243 -10 23 -99 231 -196 462 -97
231 -186 441 -197 468 -20 46 -31 56 -43 37z"/>
<path d="M5506 2044 c-82 -30 -111 -64 -136 -161 l-11 -43 -49 0 c-43 0 -50
-3 -50 -20 0 -17 7 -20 40 -20 45 0 46 -2 25 -73 l-15 -52 -50 3 c-45 4 -50 2
-50 -16 0 -17 7 -21 44 -24 l43 -3 -97 -330 c-67 -227 -94 -332 -86 -337 6 -4
13 -4 17 0 3 4 48 151 99 327 51 176 96 324 100 328 4 5 99 -1 212 -12 246
-25 228 -25 228 -1 0 11 -6 20 -12 20 -7 0 -101 9 -208 20 -107 11 -198 20
-201 20 -4 0 0 27 9 60 11 40 21 60 32 60 8 0 101 -9 205 -20 234 -24 225 -24
225 -1 0 17 -11 20 -92 27 l-93 9 43 25 c82 47 106 127 54 180 -49 48 -147 63
-226 34z"/>
<path d="M3858 2002 c-15 -9 -73 -71 -129 -137 -56 -66 -133 -152 -170 -191
-38 -40 -69 -75 -69 -79 0 -4 -25 -37 -56 -72 -33 -37 -53 -68 -48 -73 5 -5
116 -75 248 -155 l239 -146 38 37 c22 21 39 42 39 47 0 5 116 143 257 308 206
240 259 296 264 281 20 -53 119 -99 188 -87 137 24 102 170 -48 199 -68 13
-102 -7 -187 -106 -184 -215 -366 -423 -374 -426 -4 -2 -110 58 -234 132
l-226 134 107 125 c60 69 110 126 113 126 3 1 13 -12 22 -28 49 -87 227 -96
256 -12 32 91 -138 183 -230 123z m-148 -543 c294 -179 265 -157 244 -180 -10
-11 -24 -17 -33 -14 -8 3 -113 64 -234 136 l-219 131 22 24 c13 13 26 22 29
20 3 -2 89 -54 191 -117z"/>
<path d="M7475 1668 c3 -29 9 -60 11 -70 5 -18 1 -22 -38 -32 -30 -7 -32 -3
-43 77 -4 31 -11 47 -21 47 -16 0 -17 -20 -5 -93 8 -45 6 -50 -15 -59 -19 -9
-24 -19 -24 -46 0 -33 1 -34 30 -28 27 5 30 3 30 -18 0 -13 3 -37 6 -54 6 -27
3 -32 -20 -38 -26 -6 -31 -20 -20 -61 5 -18 11 -22 29 -17 22 5 24 2 30 -43 3
-26 7 -55 8 -63 1 -8 11 -16 21 -18 19 -4 19 -3 -1 115 -4 28 -2 32 27 38 17
4 34 4 37 1 3 -3 8 -31 12 -63 5 -45 10 -59 24 -61 17 -3 18 1 12 45 -3 26 -9
60 -11 76 -4 18 -1 27 8 27 29 0 40 17 33 53 -6 32 -9 35 -30 27 -21 -8 -23
-6 -29 41 -8 57 -3 69 26 69 16 0 19 5 14 23 -3 12 -6 30 -6 40 0 13 -5 16
-24 11 -27 -6 -30 0 -41 79 -4 33 -11 47 -22 47 -12 0 -14 -9 -8 -52z"/>
</g>
</svg>
