<?xml version="1.0" standalone="no"?>
<!DOCTYPE svg PUBLIC "-//W3C//DTD SVG 20010904//EN"
 "http://www.w3.org/TR/2001/REC-SVG-20010904/DTD/svg10.dtd">
<svg version="1.0" xmlns="http://www.w3.org/2000/svg"
 width="1200.000000pt" height="675.000000pt" viewBox="0 0 1200.000000 675.000000"
 preserveAspectRatio="xMidYMid meet">
<metadata>
Created by potrace 1.16, written by Peter Selinger 2001-2019
</metadata>
<g transform="translate(0.000000,640.000000) scale(0.100000,-0.100000)"
fill="#000000" stroke="none">
<path d="M6708 4878 l-3 -163 -74 3 c-77 3 -489 -14 -591 -25 l-60 -6 0 82 c0
71 -2 81 -17 81 -10 -1 -119 -25 -243 -54 l-225 -53 -5 -54 c-6 -63 34 -51
-320 -104 -129 -20 -245 -38 -257 -41 -18 -5 -36 14 -120 125 -54 72 -102 131
-108 130 -5 0 -75 -78 -154 -174 -104 -127 -150 -175 -170 -179 -358 -70 -604
-116 -608 -112 -2 2 6 27 18 55 12 29 19 54 16 57 -3 3 -47 -6 -98 -20 -51
-14 -95 -23 -98 -21 -2 3 10 36 28 75 37 83 38 92 9 88 -18 -2 -33 -29 -80
-137 -31 -73 -62 -139 -68 -146 -6 -7 -25 -15 -43 -18 -17 -3 -156 -28 -307
-56 -151 -27 -286 -51 -300 -53 l-25 -3 -5 105 c-5 97 -7 105 -25 105 -18 0
-20 -8 -25 -110 l-5 -110 -130 -22 c-71 -12 -238 -36 -370 -52 -982 -126
-1710 -100 -2146 74 -98 40 -99 40 -99 21 0 -18 165 -80 310 -116 236 -59 458
-80 855 -80 437 0 790 28 1314 106 129 18 243 34 253 34 17 0 18 -14 18 -209
0 -191 -2 -210 -17 -215 -31 -9 -362 -65 -560 -94 -121 -18 -196 -25 -202 -19
-6 6 -44 1 -103 -12 -112 -24 -219 -37 -433 -50 -298 -19 -474 -23 -619 -16
l-144 7 1 198 c1 109 -1 201 -4 205 -4 3 -93 -15 -198 -40 l-191 -47 0 -135 0
-136 -42 7 c-40 6 -181 40 -220 52 -12 3 -18 0 -18 -9 0 -15 57 -34 198 -63
53 -11 82 -22 82 -31 0 -9 -13 -13 -39 -13 -51 0 -101 -39 -101 -80 0 -48 78
-57 129 -14 26 22 31 33 31 70 0 26 5 44 11 44 51 0 197 -26 211 -38 11 -9 31
-13 60 -9 24 2 227 7 453 10 226 3 433 8 460 11 l50 6 -50 -14 c-56 -15 -362
-89 -585 -140 l-145 -33 -3 -157 -3 -156 -112 0 c-162 1 -507 37 -624 66 -16
5 -23 2 -23 -9 0 -16 24 -21 225 -52 55 -9 198 -21 318 -27 l217 -12 0 -238 0
-239 -21 12 c-15 7 -45 9 -93 3 -114 -12 -371 -7 -508 10 -152 19 -138 19
-138 1 0 -8 6 -15 14 -15 7 0 73 -7 147 -15 74 -8 178 -17 232 -21 l99 -6 -30
-32 c-41 -43 -52 -68 -52 -119 0 -38 5 -49 31 -71 39 -33 67 -40 134 -33 127
13 235 112 235 217 0 37 2 40 29 40 15 0 56 3 90 6 l61 7 0 -31 c0 -79 97
-125 203 -97 86 22 187 100 187 144 0 6 1 11 3 11 192 28 201 28 230 4 38 -32
103 -40 169 -20 55 16 148 69 148 85 0 5 55 19 123 31 310 56 718 148 1114
252 128 34 236 59 239 55 3 -3 23 -64 44 -136 l38 -131 -27 0 c-75 0 -172 -81
-187 -157 -5 -26 -14 -35 -43 -44 -64 -21 -566 -157 -569 -154 -2 1 6 18 17
36 26 43 26 75 1 117 -41 67 -133 78 -188 22 -55 -55 -46 -136 21 -179 20 -13
36 -25 34 -27 -6 -6 -522 -117 -667 -143 -612 -110 -1158 -156 -1586 -133
-121 7 -236 15 -256 18 -30 5 -38 3 -38 -9 0 -24 133 -32 550 -32 415 1 545
10 965 70 476 68 998 182 1558 340 l197 56 27 -20 c53 -43 135 -21 200 53 41
46 43 47 234 106 l192 59 18 -23 c24 -30 60 -39 107 -26 46 12 115 69 131 107
13 31 -24 18 586 208 589 183 1148 333 1258 338 44 2 72 8 84 19 20 18 188 53
423 89 200 30 540 33 680 5 201 -40 349 -104 545 -234 168 -113 265 -193 624
-515 173 -155 330 -296 349 -312 l34 -31 -41 4 c-57 6 -88 -4 -107 -33 -15
-23 -15 -27 0 -50 23 -35 85 -50 131 -31 19 8 40 26 47 40 12 28 27 33 46 14
9 -9 8 -16 -5 -30 -16 -17 -16 -20 1 -36 17 -16 18 -16 34 4 l17 21 57 -44
c57 -43 58 -44 42 -69 -15 -22 -15 -26 -1 -48 22 -34 76 -50 122 -37 35 9 42
7 153 -61 65 -38 178 -100 254 -137 132 -64 136 -67 131 -93 -3 -17 -1 -28 6
-28 6 0 11 -16 11 -35 0 -19 -4 -35 -10 -35 -5 0 -10 -9 -10 -20 0 -11 5 -20
10 -20 6 0 10 -14 10 -31 0 -44 34 -37 38 9 3 28 7 32 33 32 27 0 29 -3 29
-35 0 -24 5 -35 15 -35 11 0 15 11 15 39 0 22 5 43 10 46 6 3 10 15 10 26 0
10 -4 19 -10 19 -5 0 -10 7 -10 15 0 20 -2 21 129 -25 231 -79 504 -141 771
-176 167 -21 651 -30 847 -15 181 14 445 50 457 62 20 19 -6 20 -101 6 -451
-70 -933 -70 -1363 -2 -199 32 -461 100 -643 165 -78 29 -84 33 -79 55 2 14 0
25 -6 25 -6 0 -12 14 -14 32 -4 46 -26 47 -30 1 -3 -33 -7 -38 -30 -41 -24 -3
-27 0 -30 35 -4 45 -30 53 -38 11 l-5 -27 -120 58 c-104 50 -344 187 -368 211
-9 8 78 190 90 190 3 0 54 -31 112 -69 275 -178 584 -316 911 -406 74 -21 138
-42 141 -48 4 -5 14 -7 24 -4 14 6 44 2 133 -18 22 -5 22 -6 6 -43 -28 -64
-28 -72 -5 -72 16 0 27 13 43 48 13 26 24 49 25 50 1 2 55 -3 120 -12 302 -40
694 -45 1008 -11 208 22 225 25 225 42 0 12 -8 14 -32 9 -18 -3 -96 -13 -173
-23 -205 -25 -741 -25 -955 1 -85 10 -160 21 -167 25 -8 4 -3 26 18 76 17 39
34 74 38 78 4 4 62 0 129 -10 110 -16 121 -19 127 -40 12 -48 85 -54 140 -11
25 19 34 20 136 14 90 -5 113 -10 129 -26 25 -25 56 -25 105 1 32 16 72 22
195 30 173 11 299 24 307 33 16 16 -17 18 -129 8 -68 -7 -167 -14 -220 -18
l-98 -6 0 74 0 75 158 7 c237 10 292 16 292 34 0 12 -9 13 -42 8 -24 -3 -125
-9 -225 -13 l-183 -6 0 76 0 77 222 2 c166 2 222 6 225 15 4 10 -43 12 -221 6
l-226 -6 0 31 0 32 -204 0 c-121 0 -207 -4 -211 -10 -3 -5 -20 -7 -38 -4 -110
18 -296 59 -382 84 -108 31 -323 105 -333 114 -3 4 3 23 13 44 11 20 19 41 20
45 0 4 -80 50 -178 102 l-179 93 -16 -30 c-36 -64 -30 -64 -124 1 -194 132
-387 314 -648 611 -555 633 -752 824 -1067 1038 -112 75 -113 76 -113 115 0
31 -7 46 -33 72 -45 45 -94 54 -147 26 l-40 -21 -104 44 c-260 111 -612 191
-933 212 l-103 7 0 108 0 109 27 -11 c15 -6 33 -15 41 -21 27 -23 52 -88 52
-135 1 -40 3 -45 12 -29 6 10 11 47 11 82 0 70 -15 101 -60 131 -15 10 -44 35
-65 56 l-38 37 -2 -162z m-750 -150 l-3 -43 -70 -6 c-38 -4 -86 -8 -105 -10
-33 -4 -35 -2 -35 26 0 29 2 30 90 51 130 31 127 32 123 -18z m628 -63 c-36
-33 -36 -82 0 -95 59 -23 144 29 144 88 l0 25 117 -7 c293 -16 616 -89 888
-198 55 -22 104 -44 109 -49 6 -5 9 -30 7 -57 -3 -58 22 -95 75 -112 46 -16
91 -6 124 25 l26 25 110 -74 c60 -41 159 -114 219 -162 150 -120 455 -426 671
-674 428 -492 606 -668 824 -813 41 -27 79 -53 83 -57 9 -8 -73 -180 -85 -180
-11 0 -125 72 -213 134 -148 104 -425 353 -425 382 0 8 14 29 30 47 17 19 30
41 30 49 0 7 -38 51 -85 98 -66 65 -87 82 -97 72 -9 -9 -5 -22 20 -56 31 -43
39 -77 26 -110 -3 -9 -10 -16 -14 -16 -4 0 -111 111 -238 248 -235 252 -410
428 -539 541 -72 63 -72 63 -58 92 8 15 15 34 15 41 0 7 -58 37 -128 67 -70
30 -220 100 -334 156 -148 74 -248 116 -355 150 -81 26 -154 50 -162 54 -26
13 -73 89 -76 122 -4 51 -19 45 -45 -18 -12 -32 -26 -62 -30 -66 -4 -5 -34 -4
-66 2 -187 34 -501 47 -744 32 -344 -22 -813 -85 -1227 -165 l-73 -14 0 23 c0
24 -27 66 -133 209 -37 49 -66 90 -65 92 4 3 449 72 521 80 l57 7 0 -95 0 -95
-40 1 c-67 1 -133 -69 -100 -108 26 -32 128 -10 145 31 4 10 7 70 6 133 -1 63
2 120 6 126 5 6 46 17 92 23 131 17 121 23 121 -69 l0 -80 -30 0 c-60 0 -110
-41 -110 -89 0 -45 81 -51 134 -10 24 19 25 24 28 142 l3 122 60 7 c33 4 81
10 108 13 l47 6 0 -70 0 -70 -27 5 c-60 11 -134 -61 -107 -104 23 -35 109 -22
139 22 11 14 15 49 15 118 l0 97 43 6 c66 9 309 22 456 24 l134 1 -27 -25z
m-1782 -70 c22 -30 37 -57 35 -59 -5 -5 -232 -46 -236 -43 -1 2 30 42 69 90
50 62 74 84 82 77 7 -5 29 -34 50 -65z m135 -180 c39 -52 71 -99 71 -104 0 -5
-14 -14 -31 -21 -34 -14 -71 -58 -92 -110 l-15 -34 -203 -42 c-112 -24 -214
-46 -226 -49 -19 -4 -30 5 -68 57 -44 61 -45 62 -27 82 10 12 64 75 119 142
l101 121 139 25 c76 14 143 26 149 27 6 0 44 -42 83 -94z m-589 -3 c0 -5 -27
-41 -61 -81 -33 -39 -59 -77 -56 -84 3 -7 37 -54 76 -106 39 -52 70 -96 68
-97 -9 -10 -1541 -344 -1574 -344 -2 0 -2 95 -1 212 l3 212 323 59 c178 32
326 56 329 54 2 -3 -12 -42 -31 -88 -20 -45 -36 -88 -36 -94 0 -8 31 -3 95 13
52 14 97 23 100 20 3 -2 -10 -40 -29 -83 -32 -73 -36 -95 -18 -95 22 1 41 35
113 201 43 101 84 185 91 187 7 2 146 29 308 61 162 32 296 59 298 60 1 0 2
-3 2 -7z m2560 -72 c175 -14 290 -31 290 -44 0 -6 -26 -71 -57 -144 -50 -118
-59 -133 -77 -128 -12 3 -89 9 -173 12 l-152 7 -48 49 c-26 26 -53 48 -60 48
-21 0 -15 -30 14 -64 l26 -31 -104 -7 c-302 -21 -740 -83 -1066 -152 l-111
-23 -11 24 c-12 27 -49 31 -57 6 -12 -40 -23 -48 -85 -61 -105 -23 -533 -122
-552 -128 -11 -3 -20 1 -24 13 -4 10 -55 83 -115 162 -59 79 -107 146 -105
147 2 2 98 23 213 47 l211 44 14 -41 c18 -53 55 -72 104 -56 39 13 88 65 109
114 12 30 19 34 77 44 567 97 908 145 1154 161 184 12 439 12 585 1z m564
-101 c99 -29 316 -119 316 -131 0 -14 -101 -248 -107 -248 -3 0 -44 15 -92 34
-47 19 -131 47 -186 62 -55 15 -101 29 -103 30 -4 2 14 46 46 113 14 29 28 78
30 107 2 30 9 54 15 54 5 0 42 -9 81 -21z m-218 -126 c8 -18 14 -53 14 -79 0
-38 -3 -45 -16 -40 -9 3 -40 9 -70 12 -30 4 -57 10 -59 14 -4 7 35 111 57 153
9 18 11 18 35 -5 14 -12 32 -37 39 -55z m-2766 -214 c50 -67 89 -122 88 -123
-2 -1 -20 -9 -41 -19 -25 -11 -48 -34 -69 -66 -30 -49 -32 -50 -112 -69 -44
-11 -304 -76 -576 -145 -272 -69 -596 -148 -720 -177 -124 -28 -233 -54 -243
-56 -16 -5 -17 8 -15 212 l3 217 185 38 c340 69 522 109 960 208 239 54 438
99 442 100 4 0 48 -54 98 -120z m2190 99 c0 -7 -14 -33 -30 -58 -16 -25 -30
-50 -30 -55 0 -6 29 -43 65 -82 l65 -71 -44 13 c-55 17 -84 10 -92 -21 -5 -19
-14 -24 -62 -29 -109 -12 -357 -46 -375 -51 -13 -4 -20 1 -24 15 -7 27 -21 27
-25 0 -3 -19 -26 -26 -243 -71 -132 -27 -280 -53 -330 -58 -49 -4 -103 -12
-118 -19 -16 -6 -33 -11 -38 -11 -5 0 -9 71 -9 169 l0 169 28 5 c15 2 137 25
272 50 395 74 704 113 898 116 67 1 92 -2 92 -11z m201 -17 c-37 -35 -39 -60
-7 -90 32 -30 99 -38 149 -17 29 12 42 26 58 63 11 26 22 49 24 51 7 7 155
-21 155 -30 0 -5 -7 -23 -16 -39 -23 -46 -11 -45 20 1 14 22 28 40 30 40 2 0
50 -14 107 -31 123 -36 256 -87 264 -99 3 -5 -11 -47 -31 -94 l-37 -85 -29 22
c-41 31 -129 30 -182 -1 l-39 -23 -106 20 c-110 22 -288 41 -378 41 -50 0 -53
1 -83 45 -46 67 -50 107 -13 153 45 57 47 61 27 83 -17 19 -16 19 51 19 l67 0
-31 -29z m1148 -83 c130 -55 240 -104 244 -108 5 -5 4 -17 -2 -28 -11 -20 -13
-20 -112 23 l-100 44 -20 -45 c-11 -25 -19 -50 -17 -55 2 -6 44 -28 93 -50 49
-22 91 -42 93 -44 6 -5 -18 -74 -28 -80 -4 -3 -61 33 -127 80 -65 46 -166 112
-225 146 -60 34 -108 65 -108 69 0 5 9 30 21 57 11 26 25 58 30 71 5 12 11 22
15 22 3 0 113 -46 243 -102z m-7379 -193 l0 -125 -41 0 c-34 0 -47 -6 -74 -34
l-32 -34 -89 14 c-49 7 -95 13 -101 14 -10 0 -13 27 -13 103 l0 103 168 41
c92 23 170 42 175 42 4 1 7 -55 7 -124z m4668 -63 c2 -171 2 -172 -20 -182
-13 -5 -104 -30 -203 -56 -188 -48 -476 -127 -803 -220 -106 -30 -196 -52
-201 -50 -5 3 -23 59 -41 125 -18 65 -36 125 -40 131 -6 10 -86 -9 -329 -79
-177 -50 -328 -91 -336 -91 -22 0 -19 -22 21 -159 19 -68 34 -125 32 -127 -6
-5 -209 -59 -469 -124 -274 -69 -575 -136 -784 -175 -77 -14 -150 -28 -161
-30 -20 -4 -21 -2 -15 28 4 17 6 119 4 225 -3 154 -1 193 10 198 7 2 89 18
182 34 l168 29 29 -29 c95 -96 337 -35 415 104 5 10 72 29 193 57 102 22 470
113 818 200 348 87 636 159 640 159 4 0 8 -16 9 -36 7 -142 182 -99 226 55
l13 46 79 18 c367 86 542 125 550 123 6 -2 11 -71 13 -174z m2483 122 c97 -54
266 -167 324 -217 l39 -34 -18 -42 c-11 -23 -22 -40 -25 -38 -49 27 -91 39
-133 35 -41 -4 -63 -14 -112 -51 -7 -6 -40 9 -85 37 -41 25 -79 47 -85 49 -8
3 -7 9 2 18 30 32 0 79 -37 59 -12 -6 -21 -17 -21 -25 0 -17 -14 -19 -40 -5
-21 11 -25 -1 69 213 11 26 24 47 29 47 5 0 47 -21 93 -46z m706 -169 l120
-114 -35 -133 c-19 -73 -37 -135 -38 -137 -2 -2 -47 36 -99 85 -53 49 -132
120 -175 157 l-79 68 31 72 c17 40 41 96 54 125 l24 54 39 -31 c21 -17 93 -82
158 -146z m-1452 75 c101 -11 179 -23 248 -41 25 -7 37 -15 37 -27 0 -23 35
-60 67 -73 33 -12 107 -11 136 2 20 9 36 5 108 -31 124 -63 208 -119 224 -150
13 -25 68 -60 95 -60 20 0 108 -72 341 -278 l26 -23 -28 -29 c-34 -34 -37 -62
-8 -89 28 -26 65 -31 122 -18 l48 11 132 -130 c72 -72 169 -164 215 -205 45
-42 82 -82 81 -90 0 -8 -21 -56 -47 -107 l-48 -93 -84 72 c-47 39 -189 166
-317 281 -692 626 -929 758 -1412 784 -191 10 -539 -28 -818 -91 l-23 -5 0
145 0 146 23 -6 c57 -18 97 -83 98 -162 1 -74 17 -22 18 57 1 72 -16 108 -64
140 l-27 17 25 7 c35 8 332 46 367 46 22 0 37 -11 66 -46 61 -74 110 -88 60
-16 -47 68 -43 70 107 71 72 0 177 -4 232 -9z m-4305 -146 c0 -126 -1 -136
-17 -128 -10 4 -49 9 -88 11 -55 4 -82 0 -126 -16 -101 -38 -189 -136 -189
-210 0 -16 -3 -32 -8 -34 -9 -6 -304 -57 -328 -57 -18 0 -19 12 -19 223 l0
222 90 13 c156 22 579 93 610 102 17 4 40 9 53 9 22 1 22 0 22 -135z m3380
-55 l0 -129 -45 0 c-35 0 -52 -6 -75 -27 -17 -16 -32 -38 -33 -50 -1 -19 -22
-26 -222 -77 -360 -91 -702 -191 -1294 -378 -179 -56 -256 -76 -261 -68 -13
21 -102 351 -96 357 13 13 1169 333 1204 333 8 0 12 -26 12 -84 0 -96 11 -109
64 -77 17 11 71 34 119 51 134 49 184 107 142 167 -13 19 -13 21 13 27 173 38
459 93 465 89 4 -2 7 -62 7 -134z m2153 -54 c47 -41 125 -112 173 -158 l88
-84 -26 -94 c-21 -80 -28 -93 -44 -90 -10 2 -39 5 -63 6 -47 3 -45 1 -171 115
-47 42 -113 100 -148 128 l-63 52 42 17 c37 14 46 24 75 89 19 40 34 77 34 83
0 22 19 10 103 -64z m641 -249 c121 -132 220 -244 220 -250 -1 -6 -5 -19 -9
-28 -5 -13 10 -36 61 -88 70 -73 71 -78 19 -59 -44 16 -83 5 -91 -26 -7 -30
28 -87 85 -137 43 -38 51 -23 15 31 -43 65 -17 94 61 68 24 -9 47 -12 49 -8 3
4 -10 32 -29 62 -19 30 -35 58 -35 63 0 5 33 -22 73 -60 141 -134 255 -227
390 -316 66 -45 67 -46 40 -53 -40 -10 -53 -24 -53 -56 0 -37 33 -59 90 -59
44 0 81 20 91 49 4 10 229 -98 229 -110 0 -4 -11 -10 -25 -13 -29 -7 -49 -39
-40 -65 3 -11 22 -27 41 -36 58 -27 113 -10 149 48 9 13 29 9 170 -39 120 -40
159 -58 157 -69 -7 -37 -62 -145 -74 -145 -27 0 -285 82 -397 127 -149 59
-345 157 -480 240 -226 140 -404 288 -708 588 l-202 200 9 40 c5 22 15 62 24
89 29 89 13 158 -49 216 -15 14 -34 39 -42 55 l-16 30 28 -25 c15 -14 127
-133 249 -264z m-6994 65 l0 -149 -27 -6 c-47 -10 -338 -45 -428 -52 l-86 -7
3 123 3 123 240 57 c132 32 252 58 268 59 l27 1 0 -149z m2085 5 c0 -17 -41
-31 -290 -102 -159 -46 -298 -84 -308 -84 -13 0 -17 6 -15 22 3 19 34 30 293
104 160 46 297 82 305 81 8 -1 15 -11 15 -21z m-2675 -105 l0 -118 -57 -7
c-32 -3 -151 -9 -265 -13 l-208 -6 0 69 0 70 258 61 c141 33 260 61 265 62 4
0 7 -52 7 -118z m7294 -50 l59 -59 -11 -45 c-7 -24 -14 -53 -17 -63 -4 -11 5
2 20 29 14 26 27 47 30 47 2 0 91 -86 197 -191 196 -195 356 -338 483 -433
289 -218 628 -387 970 -486 61 -17 118 -33 127 -36 15 -4 13 -14 -16 -82 l-33
-77 -41 2 c-110 5 -472 134 -712 254 -148 74 -420 238 -420 253 0 2 16 37 35
78 l35 73 -92 47 c-176 89 -301 143 -305 132 -2 -6 -10 -19 -17 -29 -14 -19
-25 -10 -309 261 l-127 122 36 131 c20 72 40 131 43 131 4 0 33 -27 65 -59z
m-4539 -111 c17 -63 35 -125 39 -137 7 -21 4 -23 -29 -23 -71 0 -139 -51 -173
-130 l-19 -45 -176 -54 c-97 -30 -179 -55 -183 -55 -4 -1 -9 10 -11 24 -2 14
-24 97 -48 184 -25 88 -45 165 -45 171 0 11 582 185 604 181 5 -1 23 -53 41
-116z m-2165 -65 l0 -145 -27 7 c-63 17 -130 8 -200 -28 -81 -41 -123 -93
-126 -156 l-1 -41 -56 -6 c-30 -4 -72 -9 -92 -12 l-38 -6 0 234 0 235 208 22
c114 13 227 27 252 31 88 15 80 27 80 -135z m-590 -105 c0 -176 -1 -180 -19
-170 -29 15 -111 12 -167 -7 -34 -12 -67 -34 -109 -77 l-60 -61 -87 -3 -88 -4
0 240 0 239 213 10 c116 5 236 10 265 11 l52 2 0 -180z m8878 -399 l123 -62
-43 -80 c-39 -73 -45 -79 -68 -74 -25 6 -273 125 -298 142 -10 7 -2 30 34 97
l46 87 42 -25 c22 -13 96 -52 164 -85z m-1193 -56 c49 -42 70 -66 68 -81 -1
-17 13 -28 68 -54 38 -19 69 -35 69 -37 0 -2 -16 -35 -35 -74 -35 -68 -36 -69
-58 -54 -12 8 -40 15 -63 15 -37 0 -54 9 -143 78 -55 42 -101 83 -101 89 0 7
21 55 47 107 40 82 49 93 63 83 8 -7 47 -39 85 -72z m1451 -56 c153 -57 319
-104 481 -134 76 -14 148 -28 161 -31 22 -4 23 -8 20 -82 l-3 -77 -52 3 c-29
2 -99 11 -155 21 -84 14 -102 20 -100 33 2 14 -3 15 -33 7 -25 -7 -52 -7 -90
2 -30 7 -55 14 -55 15 0 2 9 26 20 53 11 28 15 53 11 56 -19 11 -40 -8 -58
-51 -10 -24 -22 -44 -28 -44 -36 1 -315 99 -315 112 0 9 80 158 85 158 1 0 51
-18 111 -41z m1054 -276 l0 -76 -169 7 c-94 3 -177 9 -185 12 -12 5 -16 21
-16 70 l0 64 185 0 185 0 0 -77z m-565 -58 c199 -29 176 -19 173 -77 l-3 -50
-41 -2 c-23 -1 -54 -12 -71 -24 -29 -21 -32 -21 -134 -7 -57 8 -114 17 -126
20 l-22 5 20 48 c11 26 27 62 35 81 11 27 18 32 36 28 13 -3 73 -13 133 -22z
m423 -41 l142 -7 0 -43 c0 -43 -1 -43 -29 -38 -34 7 -97 -20 -112 -47 -8 -16
-21 -19 -73 -19 -35 0 -84 3 -110 6 l-46 7 0 79 0 80 43 -5 c23 -4 106 -9 185
-13z"/>
<path d="M2105 4370 l-168 -180 -33 34 c-40 41 -92 60 -146 53 -111 -15 -103
-123 14 -171 49 -21 86 -20 121 2 37 23 397 412 397 429 0 7 -4 13 -9 13 -5 0
-84 -81 -176 -180z"/>
<path d="M1170 4350 l0 -170 -35 0 c-83 0 -144 -70 -99 -114 31 -31 120 -10
144 33 13 26 14 421 0 421 -6 0 -10 -63 -10 -170z"/>
<path d="M9565 3428 c-18 -78 -65 -325 -65 -345 0 -26 4 -27 46 -14 16 5 50
12 77 16 59 8 103 42 93 72 -10 31 -69 56 -115 48 l-39 -6 24 116 c13 65 21
121 18 126 -10 17 -34 9 -39 -13z"/>
<path d="M7190 2932 l0 -119 -25 0 c-14 0 -36 -8 -50 -17 -48 -31 -22 -84 35
-71 47 10 60 38 60 127 l0 78 125 0 125 0 0 -58 c0 -58 0 -59 -30 -59 -60 0
-99 -75 -46 -89 32 -8 84 20 91 49 3 12 4 78 3 147 l-3 125 -142 3 -143 3 0
-119z"/>
<path d="M11576 2653 c-3 -3 -6 -24 -6 -45 0 -21 -6 -47 -12 -58 -10 -16 -10
-24 0 -40 14 -24 16 -80 2 -80 -5 0 -10 -11 -10 -25 0 -14 5 -25 10 -25 6 0
10 -14 10 -31 0 -42 34 -37 38 6 4 32 16 45 45 45 13 0 17 -9 17 -40 0 -33 3
-40 20 -40 17 0 20 7 20 45 0 25 5 45 10 45 6 0 10 11 10 25 0 14 -4 25 -10
25 -5 0 -10 18 -10 40 0 22 5 40 10 40 6 0 10 11 10 25 0 14 -4 25 -9 25 -6 0
-11 15 -13 33 -5 48 -32 42 -38 -8 -5 -37 -8 -40 -37 -43 -32 -3 -33 -2 -33
37 0 38 -10 57 -24 44z"/>
<path d="M11062 2474 l-83 -125 -26 21 c-46 36 -133 21 -133 -23 0 -41 36 -67
93 -67 42 0 51 10 156 168 85 128 99 152 85 152 -5 0 -46 -57 -92 -126z"/>
</g>
</svg>
