<?xml version="1.0" standalone="no"?>
<!DOCTYPE svg PUBLIC "-//W3C//DTD SVG 20010904//EN"
 "http://www.w3.org/TR/2001/REC-SVG-20010904/DTD/svg10.dtd">
<svg version="1.0" xmlns="http://www.w3.org/2000/svg"
 width="149.000000pt" height="45.000000pt" viewBox="0 0 149.000000 45.000000"
 preserveAspectRatio="xMidYMid meet">
<metadata>
Created by potrace 1.16, written by Peter Selinger 2001-2019
</metadata>
<g transform="translate(0.000000,45.000000) scale(0.100000,-0.100000)"
fill="#000000" stroke="none">
<path d="M850 295 l-515 -63 -42 39 c-49 45 -80 59 -128 59 -63 0 -86 -70 -39
-117 23 -23 24 -27 10 -42 -22 -24 -20 -74 2 -94 22 -20 68 -21 99 -4 25 14
80 80 88 108 4 13 16 19 35 19 27 0 667 75 720 85 14 2 52 7 85 11 229 25 250
29 253 47 5 23 30 25 -568 -48z"/>
</g>
</svg>
