<?xml version="1.0" standalone="no"?>
<!DOCTYPE svg PUBLIC "-//W3C//DTD SVG 20010904//EN"
 "http://www.w3.org/TR/2001/REC-SVG-20010904/DTD/svg10.dtd">
<svg version="1.0" xmlns="http://www.w3.org/2000/svg"
 width="144.000000pt" height="41.000000pt" viewBox="0 0 144.000000 41.000000"
 preserveAspectRatio="xMidYMid meet">
<metadata>
Created by potrace 1.16, written by Peter Selinger 2001-2019
</metadata>
<g transform="translate(0.000000,41.000000) scale(0.100000,-0.100000)"
fill="#000000" stroke="none">
<path d="M1271 383 c-22 -11 -49 -40 -73 -78 l-39 -61 -487 -88 c-627 -113
-582 -103 -582 -128 0 -14 5 -18 18 -14 9 3 170 32 357 66 187 34 372 67 410
75 39 7 121 23 184 35 l113 22 32 -30 c69 -66 149 -82 184 -37 24 30 19 65
-13 95 -21 20 -22 24 -9 48 20 39 17 60 -11 87 -28 29 -39 30 -84 8z"/>
</g>
</svg>
